<?xml version="1.0" encoding="UTF-8" standalone="no"?>
<!DOCTYPE svg PUBLIC "-//W3C//DTD SVG 1.1//EN" "http://www.w3.org/Graphics/SVG/1.1/DTD/svg11.dtd">
<!-- Generated by Microsoft Visio, SVG Export Architecture Diagram.svg Page-1 -->
<svg xmlns="http://www.w3.org/2000/svg" xmlns:xlink="http://www.w3.org/1999/xlink" xmlns:ev="http://www.w3.org/2001/xml-events"
		width="11.5168in" height="7.32911in" viewBox="0 0 829.206 527.696" xml:space="preserve" color-interpolation-filters="sRGB"
		class="st20">
	<style type="text/css">
	<![CDATA[
		.st1 {fill:#ffffff;stroke:#7f7f7f;stroke-linecap:round;stroke-linejoin:round;stroke-width:0.5}
		.st2 {fill:#d80073;stroke:#ffffff;stroke-linecap:round;stroke-linejoin:round;stroke-width:0.5}
		.st3 {fill:#1ba1e2;stroke:#ffffff;stroke-linecap:round;stroke-linejoin:round;stroke-width:0.5}
		.st4 {fill:#ffffff;font-family:Source Code Pro;font-size:1.99999em}
		.st5 {fill:#f09609;stroke:#ffffff;stroke-linecap:round;stroke-linejoin:round;stroke-width:0.5}
		.st6 {fill:#a200ff;stroke:#ffffff;stroke-linecap:round;stroke-linejoin:round;stroke-width:0.5}
		.st7 {fill:#339933;stroke:#ffffff;stroke-linecap:round;stroke-linejoin:round;stroke-width:0.5}
		.st8 {fill:#00aba9;stroke:#ffffff;stroke-linecap:round;stroke-linejoin:round;stroke-width:0.5}
		.st9 {fill:#595959;stroke:none;stroke-linecap:butt;stroke-width:0.75}
		.st10 {marker-end:url(#mrkr12-41);stroke:#f09609;stroke-linecap:round;stroke-linejoin:round;stroke-width:2.25}
		.st11 {fill:#f09609;fill-opacity:1;stroke:#f09609;stroke-opacity:1;stroke-width:0.47169811320755}
		.st12 {marker-end:url(#mrkr12-48);stroke:#1ba1e2;stroke-linecap:round;stroke-linejoin:round;stroke-width:2.25}
		.st13 {fill:#1ba1e2;fill-opacity:1;stroke:#1ba1e2;stroke-opacity:1;stroke-width:0.47169811320755}
		.st14 {marker-end:url(#mrkr12-55);stroke:#a200ff;stroke-linecap:round;stroke-linejoin:round;stroke-width:2.25}
		.st15 {fill:#a200ff;fill-opacity:1;stroke:#a200ff;stroke-opacity:1;stroke-width:0.47169811320755}
		.st16 {marker-end:url(#mrkr14-91);stroke:#d80073;stroke-linecap:round;stroke-linejoin:round;stroke-width:2.25}
		.st17 {fill:#d80073;fill-opacity:1;stroke:#d80073;stroke-opacity:1;stroke-width:0.47169811320755}
		.st18 {marker-end:url(#mrkr12-98);stroke:#00aba9;stroke-dasharray:15.75,11.25;stroke-linecap:round;stroke-linejoin:round;stroke-width:2.25}
		.st19 {fill:#00aba9;fill-opacity:1;stroke:#00aba9;stroke-opacity:1;stroke-width:0.47169811320755}
		.st20 {fill:none;fill-rule:evenodd;font-size:12px;overflow:visible;stroke-linecap:square;stroke-miterlimit:3}
	]]>
	</style>

	<defs id="Patterns_And_Gradients">
		<linearGradient id="grad0-11" x1="0" y1="0" x2="1" y2="0" gradientTransform="rotate(90 0.5 0.5)">
			<stop offset="0.01" stop-color="#ffffff" stop-opacity="1"/>
			<stop offset="0.5" stop-color="#fefefe" stop-opacity="1"/>
			<stop offset="1" stop-color="#ffffff" stop-opacity="1"/>
		</linearGradient>
		<linearGradient id="grad0-15" x1="0" y1="0" x2="1" y2="0" gradientTransform="rotate(270 0.5 0.5)">
			<stop offset="0" stop-color="#fefefe" stop-opacity="1"/>
			<stop offset="1" stop-color="#ffffff" stop-opacity="1"/>
		</linearGradient>
	</defs>
	<defs id="Markers">
		<g id="lend12">
			<path d="M 3 1 L 0 0 L 3 -1 " style="stroke-linecap:round;stroke-linejoin:round;fill:none"/>
		</g>
		<marker id="mrkr12-41" class="st11" orient="auto" markerUnits="strokeWidth" overflow="visible">
			<use xlink:href="#lend12" transform="scale(-2.12,-2.12) "/>
		</marker>
		<marker id="mrkr12-48" class="st13" orient="auto" markerUnits="strokeWidth" overflow="visible">
			<use xlink:href="#lend12" transform="scale(-2.12,-2.12) "/>
		</marker>
		<marker id="mrkr12-55" class="st15" orient="auto" markerUnits="strokeWidth" overflow="visible">
			<use xlink:href="#lend12" transform="scale(-2.12,-2.12) "/>
		</marker>
		<g id="lend14">
			<path d="M 3 -1 L 0 0 L 3 1 L 3 -1 " style="stroke-linecap:round;stroke-linejoin:round;fill:none"/>
		</g>
		<marker id="mrkr14-91" class="st17" refX="-6.36" orient="auto" markerUnits="strokeWidth" overflow="visible">
			<use xlink:href="#lend14" transform="scale(-2.12,-2.12) "/>
		</marker>
		<marker id="mrkr12-98" class="st19" orient="auto" markerUnits="strokeWidth" overflow="visible">
			<use xlink:href="#lend12" transform="scale(-2.12,-2.12) "/>
		</marker>
	</defs>
	<g>
		<title>Page-1</title>
		<g id="group2-1" transform="translate(85.2894,-20.8346)">
			<title>Subsystem</title>
			<g id="group3-2">
				<title>Sheet.3</title>
				<g id="shape4-3" transform="translate(2.83465,2.83465)">
					<title>Sheet.4</title>
				</g>
				<g id="shape3-5">
					<path d="M0 527.7 L290.55 527.7 L581.1 527.7 L581.1 39.08 L290.55 39.08 L0 39.08 L0 527.7 Z" class="st1"/>
				</g>
			</g>
			<g id="group5-7" transform="translate(0,-450.343)">
				<title>Sheet.5</title>
				<g id="shape6-8">
					<title>Sheet.6</title>
				</g>
				<g id="shape5-12"/>
			</g>
		</g>
		<g id="shape1-16" transform="translate(18.25,-233.068)">
			<title>Actor</title>
			<path d="M6.8 527.7 L6.8 492.26 L6.8 506.44 L0 506.44 L0 478.09 L3.4 474.55 L30.61 474.55 L34.02 478.09 L34.02 506.44
						 L27.21 506.44 L27.21 492.26 L27.21 527.7 L17.01 527.7 L17.01 499.35 L17.01 527.7 L6.8 527.7 ZM24.09 463.92
						 A7.08661 7.08661 -180 1 0 9.92 463.92 A7.08661 7.08661 -180 1 0 24.09 463.92 Z" class="st2"/>
		</g>
		<g id="shape15-18" transform="translate(127.809,-91.3355)">
			<title>Rounded Rectangle</title>
			<desc>UI</desc>
			<path d="M11.34 527.7 L102.05 527.7 A11.3384 11.3384 -180 0 0 113.39 516.36 L113.39 184.7 A11.3384 11.3384 -180 0 0 102.05
						 173.37 L11.34 173.37 A11.3384 11.3384 -180 0 0 0 184.7 L0 516.36 A11.3384 11.3384 -180 0 0 11.34 527.7 Z"
					class="st3"/>
			<text x="42.29" y="357.73" class="st4">UI</text>		</g>
		<g id="shape16-21" transform="translate(288.392,-218.986)">
			<title>Rounded Rectangle.16</title>
			<desc>Main</desc>
			<path d="M13.71 527.7 L123.35 527.7 A13.7053 13.7053 -180 0 0 137.06 513.99 L137.06 442.37 A13.7053 13.7053 -180 0 0
						 123.35 428.67 L13.71 428.67 A13.7053 13.7053 -180 0 0 0 442.37 L0 513.99 A13.7053 13.7053 -180 0 0 13.71
						 527.7 Z" class="st5"/>
			<text x="39.73" y="485.38" class="st4">Main</text>		</g>
		<g id="shape17-24" transform="translate(439.62,-357.792)">
			<title>Rounded Rectangle.17</title>
			<desc>Logic</desc>
			<path d="M11.34 527.7 L102.05 527.7 A11.3384 11.3384 -180 0 0 113.39 516.36 L113.39 453.99 A11.3384 11.3384 -180 0 0
						 102.05 442.66 L11.34 442.66 A11.3384 11.3384 -180 0 0 0 453.99 L0 516.36 A11.3384 11.3384 -180 0 0 11.34
						 527.7 Z" class="st6"/>
			<text x="20.69" y="492.38" class="st4">Logic</text>		</g>
		<g id="shape18-27" transform="translate(439.62,-88.5009)">
			<title>Rounded Rectangle.18</title>
			<desc>Model</desc>
			<path d="M11.34 527.7 L102.05 527.7 A11.3384 11.3384 -180 0 0 113.39 516.36 L113.39 453.99 A11.3384 11.3384 -180 0 0
						 102.05 442.66 L11.34 442.66 A11.3384 11.3384 -180 0 0 0 453.99 L0 516.36 A11.3384 11.3384 -180 0 0 11.34
						 527.7 Z" class="st7"/>
			<text x="20.69" y="492.38" class="st4">Model</text>		</g>
		<g id="shape19-30" transform="translate(524.659,-225.981)">
			<title>Rounded Rectangle.19</title>
			<desc>Storage</desc>
			<path d="M11.34 527.7 L102.05 527.7 A11.3384 11.3384 -180 0 0 113.39 516.36 L113.39 453.99 A11.3384 11.3384 -180 0 0
						 102.05 442.66 L11.34 442.66 A11.3384 11.3384 -180 0 0 0 453.99 L0 516.36 A11.3384 11.3384 -180 0 0 11.34
						 527.7 Z" class="st8"/>
			<text x="6.29" y="492.38" class="st4">Storage</text>		</g>
		<g id="shape22-33" transform="translate(703.247,-232.068)">
			<title>Hard drive</title>
			<path d="M60.23 512.4 L60.23 515.46 L12.05 515.46 L12.05 512.4 L60.23 512.4 ZM60.23 503.22 L60.23 506.28 L12.05 506.28
						 L12.05 503.22 L60.23 503.22 ZM84.32 506.28 L84.32 515.46 L75.29 515.46 L75.29 506.28 L84.32 506.28 ZM90.34
						 521.58 L90.34 497.1 L6.02 497.1 L6.02 521.58 L90.34 521.58 ZM24.03 469.56 C21.63 472.7 11.78 485.56 7.63
						 490.98 L88.73 490.98 C84.59 485.56 74.74 472.7 72.34 469.56 L24.03 469.56 ZM94.52 488.56 C95.54 489.89 96.37
						 492.36 96.37 494.04 L96.37 524.64 C96.37 526.32 95.01 527.7 93.36 527.7 L3.01 527.7 C1.36 527.7 -0 526.32
						 0 524.64 L0 494.04 C-0 492.36 0.83 489.89 1.85 488.56 L19.23 465.86 C20.25 464.53 22.44 463.44 24.09 463.44
						 L72.28 463.44 C73.93 463.44 76.12 464.53 77.14 465.86 L94.52 488.56 Z" class="st9"/>
		</g>
		<g id="group54-35" transform="translate(288.392,-261.414)">
			<title>Directed Association.54</title>
			<g id="shape54-36">
				<path d="M0 520.61 L-47.2 520.61" class="st10"/>
			</g>
		</g>
		<g id="group34-42" transform="translate(239.494,-387.556)">
			<title>Directed Association</title>
			<g id="shape34-43">
				<path d="M0 526.28 L0 514.94 L200.13 514.94" class="st12"/>
			</g>
		</g>
		<g id="group49-49" transform="translate(553.006,-400.312)">
			<title>Directed Association.49</title>
			<g id="shape49-50">
				<path d="M0 527.7 L28.35 527.7 L28.35 616.99" class="st14"/>
			</g>
		</g>
		<g id="group39-56" transform="translate(237.226,-118.265)">
			<title>Directed Association.39</title>
			<g id="shape39-57">
				<path d="M0 526.28 L0 514.94 L202.39 514.94" class="st12"/>
			</g>
		</g>
		<g id="group44-62" transform="translate(489.226,-357.792)">
			<title>Directed Association.44</title>
			<g id="shape44-63">
				<path d="M7.09 527.7 L7.09 711.95" class="st14"/>
			</g>
		</g>
		<g id="group59-68" transform="translate(356.919,-318.016)">
			<title>Directed Association.59</title>
			<g id="shape59-69">
				<path d="M0 527.7 L0 484.6 L86.02 484.6" class="st10"/>
			</g>
		</g>
		<g id="group64-74" transform="translate(356.919,-218.986)">
			<title>Directed Association.64</title>
			<g id="shape64-75">
				<path d="M0 527.7 L0 576.46 L86.02 576.46" class="st10"/>
			</g>
		</g>
		<g id="group69-80" transform="translate(425.447,-261.414)">
			<title>Directed Association.69</title>
			<g id="shape69-81">
				<path d="M0 520.61 L68.5 520.61 A2.3622 2.3622 0 1 1 73.23 520.61 L99.21 520.61" class="st10"/>
			</g>
		</g>
		<g id="shape74-86" transform="translate(52.2657,-261.414)">
			<title>Generalization</title>
			<path d="M0 520.61 L61.23 520.61" class="st16"/>
		</g>
		<g id="group75-92" transform="translate(638.045,-261.414)">
			<title>Dependency.17</title>
			<g id="shape75-93">
				<path d="M0 520.61 L65.71 520.61" class="st18"/>
			</g>
		</g>
	</g>
</svg>
