<?xml version="1.0" encoding="UTF-8" standalone="no"?>
<!DOCTYPE svg PUBLIC "-//W3C//DTD SVG 1.1//EN" "http://www.w3.org/Graphics/SVG/1.1/DTD/svg11.dtd">
<!-- Generated by Microsoft Visio, SVG Export Events Center Diagram.svg Page-1 -->
<svg xmlns="http://www.w3.org/2000/svg" xmlns:xlink="http://www.w3.org/1999/xlink" xmlns:ev="http://www.w3.org/2001/xml-events"
		width="4.05512in" height="2.94301in" viewBox="0 0 291.969 211.897" xml:space="preserve" color-interpolation-filters="sRGB"
		class="st11">
	<style type="text/css">
	<![CDATA[
		.st1 {fill:#535991;stroke:#4d5388;stroke-linecap:round;stroke-linejoin:round;stroke-width:0.5}
		.st2 {fill:#405369;stroke:#ffffff;stroke-linecap:round;stroke-linejoin:round;stroke-width:0.5}
		.st3 {stroke:#3b4d62;stroke-dasharray:3.5,2.5;stroke-linecap:round;stroke-linejoin:round;stroke-width:0.5}
		.st4 {fill:#ffffff;font-family:Source Code Pro;font-size:1.00001em}
		.st5 {marker-end:url(#mrkr4-22);stroke:#4d5388;stroke-linecap:round;stroke-linejoin:round;stroke-width:0.5}
		.st6 {fill:#4d5388;fill-opacity:1;stroke:#4d5388;stroke-opacity:1;stroke-width:0.13368983957219}
		.st7 {fill:#ffffff;stroke:none;stroke-linecap:butt;stroke-width:7.2}
		.st8 {fill:#3b3f6a;font-family:Source Code Pro;font-size:0.666664em}
		.st9 {marker-end:url(#mrkr3-30);stroke:#4d5388;stroke-dasharray:3.5,2.5;stroke-linecap:round;stroke-linejoin:round;stroke-width:0.5}
		.st10 {fill:#3b3f6a;font-family:Segoe UI;font-size:0.666664em}
		.st11 {fill:none;fill-rule:evenodd;font-size:12px;overflow:visible;stroke-linecap:square;stroke-miterlimit:3}
	]]>
	</style>

	<defs id="Markers">
		<g id="lend4">
			<path d="M 2 1 L 0 0 L 2 -1 L 2 1 " style="stroke:none"/>
		</g>
		<marker id="mrkr4-22" class="st6" refX="-14.96" orient="auto" markerUnits="strokeWidth" overflow="visible">
			<use xlink:href="#lend4" transform="scale(-7.48,-7.48) "/>
		</marker>
		<g id="lend3">
			<path d="M 2 1 L 0 0 L 2 -1 " style="stroke-linecap:round;stroke-linejoin:round;fill:none"/>
		</g>
		<marker id="mrkr3-30" class="st6" orient="auto" markerUnits="strokeWidth" overflow="visible">
			<use xlink:href="#lend3" transform="scale(-7.48,-7.48) "/>
		</marker>
	</defs>
	<g>
		<title>Page-1</title>
		<g id="group31-1" transform="translate(18.25,-66.125)">
			<title>Sheet.31</title>
			<g id="shape7-2" transform="translate(-182.133,226.816) rotate(-90)">
				<title>Activation</title>
				<rect x="0" y="203.393" width="88.62" height="8.50394" class="st1"/>
			</g>
			<g id="group11-4" transform="translate(-2.79776E-14,-98.4666)">
				<title>Object lifeline</title>
				<desc>UI</desc>
				<g id="shape12-5">
					<title>Sheet.12</title>
					<rect x="0" y="186.385" width="51.0236" height="25.5118" class="st2"/>
				</g>
				<g id="shape13-7" transform="translate(17.0079,-29.0551)">
					<title>Sheet.13</title>
					<path d="M8.5 211.9 a0 0 0 1 1 0 0 a0 0 0 1 1 0 0 Z" class="st2"/>
				</g>
				<g id="shape14-9" transform="translate(17.0079,146.592)">
					<title>Sheet.14</title>
				</g>
				<g id="shape15-11" transform="translate(237.409,211.897) rotate(90)">
					<title>Sheet.15</title>
					<path d="M0 211.9 L128.98 211.9" class="st3"/>
				</g>
				<g id="shape11-14">
					<rect x="0" y="186.385" width="51.0236" height="25.5118" class="st2"/>
					<text x="18.31" y="202.74" class="st4">UI</text>				</g>
			</g>
		</g>
		<g id="shape74-17" transform="translate(48.0138,-132.739)">
			<title>Message</title>
			<desc>post(showHelpEvent)</desc>
			<path d="M0 204.81 L158.24 204.81" class="st5"/>
			<rect x="37.2599" y="200.01" width="91.1986" height="9.59985" class="st7"/>
			<text x="37.26" y="207.21" class="st8">post(showHelpEvent)</text>		</g>
		<g id="shape82-25" transform="translate(213.732,-112.897)">
			<title>Return Message</title>
			<desc>execute()</desc>
			<path d="M0 218.98 L-165.72 218.98" class="st9"/>
			<rect x="-104.459" y="214.184" width="43.1993" height="9.59985" class="st7"/>
			<text x="-104.46" y="221.38" class="st8">execute()</text>		</g>
		<g id="group194-33" transform="translate(188.504,-66.125)">
			<title>Sheet.194</title>
			<g id="shape33-34" transform="translate(-178.165,211.897) rotate(-90)">
				<title>Activation</title>
				<rect x="0" y="203.393" width="73.7008" height="8.50394" class="st1"/>
			</g>
			<g id="group34-36" transform="translate(-24.0945,-98.4666)">
				<title>Object lifeline</title>
				<desc>:EventsCenter</desc>
				<g id="shape35-37" transform="translate(29.1427,0)">
					<title>Sheet.35</title>
					<rect x="0" y="186.385" width="51.0236" height="25.5118" class="st2"/>
				</g>
				<g id="shape36-39" transform="translate(46.1506,-29.0551)">
					<title>Sheet.36</title>
					<path d="M8.5 211.9 a0 0 0 1 1 0 0 a0 0 0 1 1 0 0 Z" class="st2"/>
				</g>
				<g id="shape37-41" transform="translate(36.4364,146.592)">
					<title>Sheet.37</title>
				</g>
				<g id="shape38-43" transform="translate(266.551,211.897) rotate(90)">
					<title>Sheet.38</title>
					<path d="M0 211.9 L128.98 211.9" class="st3"/>
				</g>
				<g id="shape34-46">
					<rect x="0" y="186.385" width="109.309" height="25.5118" class="st2"/>
					<text x="7.85" y="202.74" class="st4">:EventsCenter</text>				</g>
			</g>
		</g>
		<g id="shape195-49" transform="translate(40.9272,-88.8022)">
			<title>Self Message</title>
			<desc>Show help view</desc>
			<path d="M7.09 211.9 L25.09 211.9 L25.09 245.91 L14.57 245.91" class="st5"/>
			<rect x="15.2501" y="224.478" width="54.7147" height="9.59985" class="st7"/>
			<text x="15.25" y="231.68" class="st10">Show help view</text>		</g>
	</g>
</svg>
