<?xml version="1.0" encoding="UTF-8" standalone="no"?>
<!DOCTYPE svg PUBLIC "-//W3C//DTD SVG 1.1//EN" "http://www.w3.org/Graphics/SVG/1.1/DTD/svg11.dtd">
<!-- Generated by Microsoft Visio, SVG Export Logic Component.vsdx.svg Page-1 -->
<svg xmlns="http://www.w3.org/2000/svg" xmlns:xlink="http://www.w3.org/1999/xlink" xmlns:ev="http://www.w3.org/2001/xml-events"
		width="9.48332in" height="6.8801in" viewBox="0 0 682.799 495.367" xml:space="preserve" color-interpolation-filters="sRGB"
		class="st14">
	<style type="text/css">
	<![CDATA[
		.st1 {fill:#ecccff;stroke:#a200ff;stroke-linecap:round;stroke-linejoin:round;stroke-width:0.5}
		.st2 {fill:#51007f;font-family:Source Code Pro;font-size:0.833336em}
		.st3 {fill:#51007f;font-family:Source Code Pro;font-size:1.00001em}
		.st4 {fill:#a200ff}
		.st5 {stroke:#a200ff;stroke-dasharray:2,1;stroke-linecap:butt;stroke-width:1}
		.st6 {fill:#a200ff;stroke:#a200ff;stroke-linecap:round;stroke-linejoin:round;stroke-width:0.5}
		.st7 {fill:#ffffff;font-family:Source Code Pro;font-size:1.00001em}
		.st8 {marker-end:url(#mrkr14-31);stroke:#a200ff;stroke-dasharray:7,5;stroke-linecap:round;stroke-linejoin:round;stroke-width:1}
		.st9 {fill:#a200ff;fill-opacity:1;stroke:#a200ff;stroke-opacity:1;stroke-width:0.28409090909091}
		.st10 {stroke:#a200ff;stroke-linecap:round;stroke-linejoin:round;stroke-width:1}
		.st11 {marker-end:url(#mrkr12-126);stroke:#a200ff;stroke-dasharray:7,5;stroke-linecap:round;stroke-linejoin:round;stroke-width:1}
		.st12 {fill:#d80073;stroke:#ffffff;stroke-linecap:round;stroke-linejoin:round;stroke-width:0.5}
		.st13 {marker-end:url(#mrkr12-126);stroke:#a200ff;stroke-linecap:round;stroke-linejoin:round;stroke-width:1}
		.st14 {fill:none;fill-rule:evenodd;font-size:12px;overflow:visible;stroke-linecap:square;stroke-miterlimit:3}
	]]>
	</style>

	<defs id="Markers">
		<g id="lend14">
			<path d="M 3 -1 L 0 0 L 3 1 L 3 -1 " style="stroke-linecap:round;stroke-linejoin:round;fill:none"/>
		</g>
		<marker id="mrkr14-31" class="st9" refX="-10.56" orient="auto" markerUnits="strokeWidth" overflow="visible">
			<use xlink:href="#lend14" transform="scale(-3.52,-3.52) "/>
		</marker>
		<g id="lend12">
			<path d="M 3 1 L 0 0 L 3 -1 " style="stroke-linecap:round;stroke-linejoin:round;fill:none"/>
		</g>
		<marker id="mrkr12-126" class="st9" orient="auto" markerUnits="strokeWidth" overflow="visible">
			<use xlink:href="#lend12" transform="scale(-3.52,-3.52) "/>
		</marker>
	</defs>
	<g>
		<title>Page-1</title>
		<g id="group58-1" transform="translate(252.108,-103.289)">
			<title>Interface.58</title>
			<desc>Logic</desc>
			<g id="shape59-2">
				<title>Sheet.59</title>
				<path d="M0 495.37 L184.25 495.37 L184.25 486.86 L0 486.86 L0 495.37 Z" class="st1"/>
			</g>
			<g id="shape60-4" transform="translate(0,-8.50394)">
				<title>Sheet.60</title>
				<path d="M0 495.37 L184.25 495.37 L184.25 452.46 L0 452.46 L0 495.37 Z" class="st1"/>
			</g>
			<g id="shape61-6" transform="translate(0,-35.4076)">
				<title>Sheet.61</title>
				<desc>&#60;&#60;Interface&#62;&#62;</desc>
				<text x="4" y="492.37" class="st2">&#60;&#60;Interface&#62;&#62;</text>			</g>
			<g id="shape62-8" transform="translate(175.748,-51.4113)">
				<title>Sheet.62</title>
				<desc>parameter</desc>
			</g>
			<g id="shape58-9">
				<text x="4" y="474.76" class="st3">Logic</text>			</g>
		</g>
		<g id="shape63-11" transform="translate(254.943,-189.714)">
			<title>Separator.63</title>
			<path d="M0 493.95 L178.58 493.95 L0 493.95 Z" class="st4"/>
			<path d="M0 493.95 L178.58 493.95" class="st5"/>
		</g>
		<g id="group64-14" transform="translate(252.108,-184.045)">
			<title>Class.64</title>
			<desc>TodoLogic</desc>
			<g id="shape65-15">
				<title>Sheet.65</title>
				<path d="M0 495.37 L184.25 495.37 L184.25 464.19 L0 464.19 L0 495.37 Z" class="st6"/>
			</g>
			<g id="shape66-17" transform="translate(0,-31.1811)">
				<title>Sheet.66</title>
				<path d="M0 495.37 L184.25 495.37 L184.25 463.96 L0 463.96 L0 495.37 Z" class="st6"/>
			</g>
			<g id="shape68-19" transform="translate(175.748,-62.5848)">
				<title>Sheet.68</title>
				<desc>parameter</desc>
			</g>
			<g id="shape64-20">
				<text x="4" y="452.08" class="st7">TodoLogic</text>			</g>
		</g>
		<g id="shape69-22" transform="translate(254.943,-192.549)">
			<title>Separator.69</title>
			<path d="M0 493.95 L178.58 493.95 L0 493.95 Z" class="st4"/>
			<path d="M0 493.95 L178.58 493.95" class="st5"/>
		</g>
		<g id="group70-25" transform="translate(337.148,-184.045)">
			<title>Interface Realization.70</title>
			<g id="shape70-26">
				<path d="M7.09 495.37 L7.09 514.15" class="st8"/>
			</g>
		</g>
		<g id="group90-32" transform="translate(18.25,-352.393)">
			<title>Interface.90</title>
			<desc>Dispatcher</desc>
			<g id="shape91-33">
				<title>Sheet.91</title>
				<path d="M0 495.37 L184.25 495.37 L184.25 486.86 L0 486.86 L0 495.37 Z" class="st1"/>
			</g>
			<g id="shape92-35" transform="translate(0,-8.50394)">
				<title>Sheet.92</title>
				<path d="M0 495.37 L184.25 495.37 L184.25 452.46 L0 452.46 L0 495.37 Z" class="st1"/>
			</g>
			<g id="shape93-37" transform="translate(0,-35.4076)">
				<title>Sheet.93</title>
				<desc>&#60;&#60;Interface&#62;&#62;</desc>
				<text x="4" y="492.37" class="st2">&#60;&#60;Interface&#62;&#62;</text>			</g>
			<g id="shape94-39" transform="translate(175.748,-51.4113)">
				<title>Sheet.94</title>
				<desc>parameter</desc>
			</g>
			<g id="shape90-40">
				<text x="4" y="474.76" class="st3">Dispatcher</text>			</g>
		</g>
		<g id="shape95-42" transform="translate(254.943,-201.053)">
			<title>Separator.95</title>
			<path d="M0 493.95 L178.58 493.95 L0 493.95 Z" class="st4"/>
			<path d="M0 493.95 L178.58 493.95" class="st5"/>
		</g>
		<g id="group96-45" transform="translate(18.25,-437.209)">
			<title>Class.96</title>
			<desc>TodoDispatcher</desc>
			<g id="shape97-46">
				<title>Sheet.97</title>
				<path d="M0 495.37 L184.25 495.37 L184.25 486.86 L0 486.86 L0 495.37 Z" class="st6"/>
			</g>
			<g id="shape98-48" transform="translate(0,-8.50394)">
				<title>Sheet.98</title>
				<path d="M0 495.37 L184.25 495.37 L184.25 463.96 L0 463.96 L0 495.37 Z" class="st6"/>
			</g>
			<g id="shape100-50" transform="translate(175.748,-39.9076)">
				<title>Sheet.100</title>
				<desc>parameter</desc>
			</g>
			<g id="shape96-51">
				<text x="4" y="474.76" class="st7">TodoDispatcher</text>			</g>
		</g>
		<g id="shape101-53" transform="translate(254.943,-209.557)">
			<title>Separator.101</title>
			<path d="M0 493.95 L178.58 493.95 L0 493.95 Z" class="st4"/>
			<path d="M0 493.95 L178.58 493.95" class="st5"/>
		</g>
		<g id="group102-56" transform="translate(103.289,-437.209)">
			<title>Interface Realization.102</title>
			<g id="shape102-57">
				<path d="M7.09 495.37 L7.09 518.21" class="st8"/>
			</g>
		</g>
		<g id="group227-62" transform="translate(480.297,-352.393)">
			<title>Interface.227</title>
			<desc>Parser</desc>
			<g id="shape228-63">
				<title>Sheet.228</title>
				<path d="M0 495.37 L184.25 495.37 L184.25 486.86 L0 486.86 L0 495.37 Z" class="st1"/>
			</g>
			<g id="shape229-65" transform="translate(0,-8.50394)">
				<title>Sheet.229</title>
				<path d="M0 495.37 L184.25 495.37 L184.25 452.46 L0 452.46 L0 495.37 Z" class="st1"/>
			</g>
			<g id="shape230-67" transform="translate(0,-35.4076)">
				<title>Sheet.230</title>
				<desc>&#60;&#60;Interface&#62;&#62;</desc>
				<text x="4" y="492.37" class="st2">&#60;&#60;Interface&#62;&#62;</text>			</g>
			<g id="shape231-69" transform="translate(175.748,-51.4113)">
				<title>Sheet.231</title>
				<desc>parameter</desc>
			</g>
			<g id="shape227-70">
				<text x="4" y="474.76" class="st3">Parser</text>			</g>
		</g>
		<g id="shape232-72" transform="translate(254.943,-195.384)">
			<title>Separator.232</title>
			<path d="M0 493.95 L178.58 493.95 L0 493.95 Z" class="st4"/>
			<path d="M0 493.95 L178.58 493.95" class="st5"/>
		</g>
		<g id="group233-75" transform="translate(480.297,-437.209)">
			<title>Class.233</title>
			<desc>TodoParser</desc>
			<g id="shape234-76">
				<title>Sheet.234</title>
				<path d="M0 495.37 L184.25 495.37 L184.25 486.86 L0 486.86 L0 495.37 Z" class="st6"/>
			</g>
			<g id="shape235-78" transform="translate(0,-8.50394)">
				<title>Sheet.235</title>
				<path d="M0 495.37 L184.25 495.37 L184.25 463.96 L0 463.96 L0 495.37 Z" class="st6"/>
			</g>
			<g id="shape237-80" transform="translate(175.748,-39.9076)">
				<title>Sheet.237</title>
				<desc>parameter</desc>
			</g>
			<g id="shape233-81">
				<text x="4" y="474.76" class="st7">TodoParser</text>			</g>
		</g>
		<g id="shape238-83" transform="translate(254.943,-206.722)">
			<title>Separator.238</title>
			<path d="M0 493.95 L178.58 493.95 L0 493.95 Z" class="st4"/>
			<path d="M0 493.95 L178.58 493.95" class="st5"/>
		</g>
		<g id="group239-86" transform="translate(565.337,-437.209)">
			<title>Interface Realization.239</title>
			<g id="shape239-87">
				<path d="M7.09 495.37 L7.09 518.21" class="st8"/>
			</g>
		</g>
		<g id="group244-92" transform="translate(252.108,-352.393)">
			<title>Interface.244</title>
			<desc>ParseResult</desc>
			<g id="shape245-93">
				<title>Sheet.245</title>
				<path d="M0 495.37 L184.25 495.37 L184.25 486.86 L0 486.86 L0 495.37 Z" class="st1"/>
			</g>
			<g id="shape246-95" transform="translate(0,-8.50394)">
				<title>Sheet.246</title>
				<path d="M0 495.37 L184.25 495.37 L184.25 452.46 L0 452.46 L0 495.37 Z" class="st1"/>
			</g>
			<g id="shape247-97" transform="translate(0,-35.4076)">
				<title>Sheet.247</title>
				<desc>&#60;&#60;Interface&#62;&#62;</desc>
				<text x="4" y="492.37" class="st2">&#60;&#60;Interface&#62;&#62;</text>			</g>
			<g id="shape248-99" transform="translate(175.748,-51.4113)">
				<title>Sheet.248</title>
				<desc>parameter</desc>
			</g>
			<g id="shape244-100">
				<text x="4" y="474.76" class="st3">ParseResult</text>			</g>
		</g>
		<g id="shape249-102" transform="translate(254.943,-198.218)">
			<title>Separator.249</title>
			<path d="M0 493.95 L178.58 493.95 L0 493.95 Z" class="st4"/>
			<path d="M0 493.95 L178.58 493.95" class="st5"/>
		</g>
		<g id="group250-105" transform="translate(252.108,-437.209)">
			<title>Class.250</title>
			<desc>TodoResult</desc>
			<g id="shape251-106">
				<title>Sheet.251</title>
				<path d="M0 495.37 L184.25 495.37 L184.25 486.86 L0 486.86 L0 495.37 Z" class="st6"/>
			</g>
			<g id="shape252-108" transform="translate(0,-8.50394)">
				<title>Sheet.252</title>
				<path d="M0 495.37 L184.25 495.37 L184.25 463.96 L0 463.96 L0 495.37 Z" class="st6"/>
			</g>
			<g id="shape254-110" transform="translate(175.748,-39.9076)">
				<title>Sheet.254</title>
				<desc>parameter</desc>
			</g>
			<g id="shape250-111">
				<text x="4" y="474.76" class="st7">TodoResult</text>			</g>
		</g>
		<g id="shape255-113" transform="translate(254.943,-203.888)">
			<title>Separator.255</title>
			<path d="M0 493.95 L178.58 493.95 L0 493.95 Z" class="st4"/>
			<path d="M0 493.95 L178.58 493.95" class="st5"/>
		</g>
		<g id="group261-116" transform="translate(480.297,-450.077)">
			<title>Composition</title>
			<g id="shape261-117">
				<path d="M0 488.28 L-43.94 488.28" class="st10"/>
			</g>
		</g>
		<g id="group266-120" transform="translate(202.502,-371.012)">
			<title>Dependency</title>
			<g id="shape266-121">
				<path d="M0 488.28 L49.61 488.28" class="st11"/>
			</g>
		</g>
		<g id="group276-127" transform="translate(337.148,-437.209)">
			<title>Interface Realization</title>
			<g id="shape276-128">
				<path d="M7.09 495.37 L7.09 518.21" class="st8"/>
			</g>
		</g>
		<g id="shape286-133" transform="translate(551.163,-171.289)">
			<title>Package (collapsed)</title>
			<desc>Model</desc>
			<rect x="0" y="461.351" width="113.386" height="34.0157" class="st12"/>
			<text x="38.69" y="481.96" class="st7">Model</text>		</g>
		<g id="group287-136" transform="translate(436.36,-215.337)">
			<title>Directed Association</title>
			<g id="shape287-137">
				<path d="M0 495.37 L52.44 495.37 L52.44 522.41 L114.8 522.41" class="st13"/>
			</g>
		</g>
		<g id="group388-142" transform="translate(337.148,-103.289)">
			<title>Dependency.388</title>
			<g id="shape388-143">
				<path d="M7.09 495.37 L7.09 529" class="st11"/>
			</g>
		</g>
		<g id="group410-148" transform="translate(252.108,-18.25)">
			<title>Interface.410</title>
			<desc>BaseCommand</desc>
			<g id="shape411-149">
				<title>Sheet.411</title>
				<path d="M0 495.37 L184.25 495.37 L184.25 486.86 L0 486.86 L0 495.37 Z" class="st1"/>
			</g>
			<g id="shape412-151" transform="translate(0,-8.50394)">
				<title>Sheet.412</title>
				<path d="M0 495.37 L184.25 495.37 L184.25 452.46 L0 452.46 L0 495.37 Z" class="st1"/>
			</g>
			<g id="shape413-153" transform="translate(0,-35.4076)">
				<title>Sheet.413</title>
				<desc>{Abstract}</desc>
				<text x="4" y="492.37" class="st2">{Abstract}</text>			</g>
			<g id="shape414-155" transform="translate(175.748,-51.4113)">
				<title>Sheet.414</title>
				<desc>parameter</desc>
			</g>
			<g id="shape410-156">
				<text x="4" y="474.76" class="st3">BaseCommand</text>			</g>
		</g>
		<g id="shape415-158" transform="translate(254.943,-186.88)">
			<title>Separator.415</title>
			<path d="M0 493.95 L178.58 493.95 L0 493.95 Z" class="st4"/>
			<path d="M0 493.95 L178.58 493.95" class="st5"/>
		</g>
		<g id="group433-161" transform="translate(344.234,-246.63)">
			<title>Directed Association.433</title>
			<g id="shape433-162">
				<path d="M0 495.37 L0 484.74 L-233.86 484.74 L-233.86 389.6" class="st13"/>
			</g>
		</g>
		<g id="group438-167" transform="translate(344.234,-246.63)">
			<title>Directed Association.438</title>
			<g id="shape438-168">
				<path d="M0 495.37 L0 484.74 L228.19 484.74 L228.19 389.6" class="st13"/>
			</g>
		</g>
	</g>
</svg>
