<?xml version="1.0" encoding="UTF-8" standalone="no"?>
<!DOCTYPE svg PUBLIC "-//W3C//DTD SVG 1.1//EN" "http://www.w3.org/Graphics/SVG/1.1/DTD/svg11.dtd">
<!-- Generated by Microsoft Visio, SVG Export Logic Component 1.svg Page-1 -->
<svg xmlns="http://www.w3.org/2000/svg" xmlns:xlink="http://www.w3.org/1999/xlink" xmlns:ev="http://www.w3.org/2001/xml-events"
		width="11.6929in" height="8.26772in" viewBox="0 0 841.89 595.276" xml:space="preserve" color-interpolation-filters="sRGB"
		class="st15">
	<style type="text/css">
	<![CDATA[
		.st1 {fill:#ecccff;stroke:#a200ff;stroke-linecap:round;stroke-linejoin:round;stroke-width:0.5}
		.st2 {fill:#51007f;font-family:Source Code Pro;font-size:0.833336em}
		.st3 {fill:#51007f;font-family:Source Code Pro;font-size:1.00001em}
		.st4 {fill:#a200ff}
		.st5 {stroke:#a200ff;stroke-dasharray:2,1;stroke-linecap:butt;stroke-width:1}
		.st6 {fill:#a200ff;stroke:#a200ff;stroke-linecap:round;stroke-linejoin:round;stroke-width:0.5}
		.st7 {fill:#ffffff;font-family:Source Code Pro;font-size:1.00001em}
		.st8 {marker-end:url(#mrkr14-44);stroke:#a200ff;stroke-dasharray:7,5;stroke-linecap:round;stroke-linejoin:round;stroke-width:1}
		.st9 {fill:#a200ff;fill-opacity:1;stroke:#a200ff;stroke-opacity:1;stroke-width:0.28409090909091}
		.st10 {stroke:#a200ff;stroke-linecap:round;stroke-linejoin:round;stroke-width:1}
		.st11 {marker-end:url(#mrkr14-44);stroke:#a200ff;stroke-linecap:round;stroke-linejoin:round;stroke-width:1}
		.st12 {marker-start:url(#mrkr22-160);stroke:#a200ff;stroke-linecap:round;stroke-linejoin:round;stroke-width:1}
		.st13 {fill:#1ba1e2}
		.st14 {marker-end:url(#mrkr12-170);stroke:#a200ff;stroke-dasharray:7,5;stroke-linecap:round;stroke-linejoin:round;stroke-width:1}
		.st15 {fill:none;fill-rule:evenodd;font-size:12px;overflow:visible;stroke-linecap:square;stroke-miterlimit:3}
	]]>
	</style>

	<defs id="Markers">
		<g id="lend14">
			<path d="M 3 -1 L 0 0 L 3 1 L 3 -1 " style="stroke-linecap:round;stroke-linejoin:round;fill:none"/>
		</g>
		<marker id="mrkr14-44" class="st9" refX="-10.56" orient="auto" markerUnits="strokeWidth" overflow="visible">
			<use xlink:href="#lend14" transform="scale(-3.52,-3.52) "/>
		</marker>
		<g id="lend22">
			<path d="M 0 0 L 2.25 -1.125 L 4.5 0 L 2.25 1.125 L 0 0 " style="stroke-linecap:round;stroke-linejoin:round;fill:none"/>
		</g>
		<marker id="mrkr22-160" class="st9" refX="15.48" orient="auto" markerUnits="strokeWidth" overflow="visible">
			<use xlink:href="#lend22" transform="scale(3.52) "/>
		</marker>
		<g id="lend12">
			<path d="M 3 1 L 0 0 L 3 -1 " style="stroke-linecap:round;stroke-linejoin:round;fill:none"/>
		</g>
		<marker id="mrkr12-170" class="st9" orient="auto" markerUnits="strokeWidth" overflow="visible">
			<use xlink:href="#lend12" transform="scale(-3.52,-3.52) "/>
		</marker>
	</defs>
	<g>
		<title>Page-1</title>
		<g id="group1-1" transform="translate(87.4488,-323.32)">
			<title>Interface.107</title>
			<desc>Argument</desc>
			<g id="shape2-2">
				<title>Sheet.2</title>
				<path d="M0 595.28 L184.25 595.28 L184.25 586.77 L0 586.77 L0 595.28 Z" class="st1"/>
			</g>
			<g id="shape3-4" transform="translate(0,-8.50394)">
				<title>Sheet.3</title>
				<path d="M0 595.28 L184.25 595.28 L184.25 552.37 L0 552.37 L0 595.28 Z" class="st1"/>
			</g>
			<g id="shape4-6" transform="translate(0,-35.4076)">
				<title>Sheet.4</title>
				<desc>{Abstract}</desc>
				<text x="4" y="592.27" class="st2">{Abstract}</text>			</g>
			<g id="shape5-8" transform="translate(175.748,-51.4113)">
				<title>Sheet.5</title>
				<desc>parameter</desc>
			</g>
			<g id="shape1-9">
				<text x="4" y="574.67" class="st3">Argument</text>			</g>
		</g>
		<g id="shape6-11" transform="translate(90.2835,-326.155)">
			<title>Separator.112</title>
			<path d="M0 593.86 L178.58 593.86 L0 593.86 Z" class="st4"/>
			<path d="M0 593.86 L178.58 593.86" class="st5"/>
		</g>
		<g id="group7-14" transform="translate(18,-445.099)">
			<title>Class.113</title>
			<desc>FlagArgument</desc>
			<g id="shape8-15">
				<title>Sheet.8</title>
				<path d="M0 595.28 L184.25 595.28 L184.25 586.77 L0 586.77 L0 595.28 Z" class="st6"/>
			</g>
			<g id="shape9-17" transform="translate(0,-8.50394)">
				<title>Sheet.9</title>
				<path d="M0 595.28 L184.25 595.28 L184.25 563.87 L0 563.87 L0 595.28 Z" class="st6"/>
			</g>
			<g id="shape11-19" transform="translate(175.748,-39.9076)">
				<title>Sheet.11</title>
				<desc>parameter</desc>
			</g>
			<g id="shape7-20">
				<text x="4" y="574.67" class="st7">FlagArgument</text>			</g>
		</g>
		<g id="shape12-22" transform="translate(20.8346,-447.933)">
			<title>Separator.118</title>
			<path d="M0 593.86 L178.58 593.86 L0 593.86 Z" class="st4"/>
			<path d="M0 593.86 L178.58 593.86" class="st5"/>
		</g>
		<g id="group13-25" transform="translate(87.4488,-248.627)">
			<title>Interface.130</title>
			<desc>Parameter</desc>
			<g id="shape14-26">
				<title>Sheet.14</title>
				<path d="M0 595.28 L184.25 595.28 L184.25 586.77 L0 586.77 L0 595.28 Z" class="st1"/>
			</g>
			<g id="shape15-28" transform="translate(0,-8.50394)">
				<title>Sheet.15</title>
				<path d="M0 595.28 L184.25 595.28 L184.25 552.37 L0 552.37 L0 595.28 Z" class="st1"/>
			</g>
			<g id="shape16-30" transform="translate(0,-35.4076)">
				<title>Sheet.16</title>
				<desc>&#60;&#60;Interface&#62;&#62;</desc>
				<text x="4" y="592.27" class="st2">&#60;&#60;Interface&#62;&#62;</text>			</g>
			<g id="shape17-32" transform="translate(175.748,-51.4113)">
				<title>Sheet.17</title>
				<desc>parameter</desc>
			</g>
			<g id="shape13-33">
				<text x="4" y="574.67" class="st3">Parameter</text>			</g>
		</g>
		<g id="shape18-35" transform="translate(90.2835,-251.462)">
			<title>Separator.135</title>
			<path d="M0 593.86 L178.58 593.86 L0 593.86 Z" class="st4"/>
			<path d="M0 593.86 L178.58 593.86" class="st5"/>
		</g>
		<g id="group19-38" transform="translate(172.488,-323.32)">
			<title>Interface Realization.136</title>
			<g id="shape19-39">
				<path d="M7.09 595.28 L7.09 608" class="st8"/>
			</g>
		</g>
		<g id="group24-45" transform="translate(112.961,-490.342)">
			<title>Class.147</title>
			<desc>IntArgument</desc>
			<g id="shape25-46">
				<title>Sheet.25</title>
				<path d="M0 595.28 L184.25 595.28 L184.25 586.77 L0 586.77 L0 595.28 Z" class="st6"/>
			</g>
			<g id="shape26-48" transform="translate(0,-8.50394)">
				<title>Sheet.26</title>
				<path d="M0 595.28 L184.25 595.28 L184.25 563.87 L0 563.87 L0 595.28 Z" class="st6"/>
			</g>
			<g id="shape28-50" transform="translate(175.748,-39.9076)">
				<title>Sheet.28</title>
				<desc>parameter</desc>
			</g>
			<g id="shape24-51">
				<text x="4" y="574.67" class="st7">IntArgument</text>			</g>
		</g>
		<g id="shape29-53" transform="translate(115.795,-493.176)">
			<title>Separator.152</title>
			<path d="M0 593.86 L178.58 593.86 L0 593.86 Z" class="st4"/>
			<path d="M0 593.86 L178.58 593.86" class="st5"/>
		</g>
		<g id="group30-56" transform="translate(207.921,-444.765)">
			<title>Class.153</title>
			<desc>StringArgument</desc>
			<g id="shape31-57">
				<title>Sheet.31</title>
				<path d="M0 595.28 L184.25 595.28 L184.25 586.77 L0 586.77 L0 595.28 Z" class="st6"/>
			</g>
			<g id="shape32-59" transform="translate(0,-8.50394)">
				<title>Sheet.32</title>
				<path d="M0 595.28 L184.25 595.28 L184.25 563.87 L0 563.87 L0 595.28 Z" class="st6"/>
			</g>
			<g id="shape34-61" transform="translate(175.748,-39.9076)">
				<title>Sheet.34</title>
				<desc>parameter</desc>
			</g>
			<g id="shape30-62">
				<text x="4" y="574.67" class="st7">StringArgument</text>			</g>
		</g>
		<g id="shape35-64" transform="translate(210.756,-447.599)">
			<title>Separator.158</title>
			<path d="M0 593.86 L178.58 593.86 L0 593.86 Z" class="st4"/>
			<path d="M0 593.86 L178.58 593.86" class="st5"/>
		</g>
		<g id="group36-67" transform="translate(302.882,-490.342)">
			<title>Class.159</title>
			<desc>FlagArgument</desc>
			<g id="shape37-68">
				<title>Sheet.37</title>
				<path d="M0 595.28 L184.25 595.28 L184.25 586.77 L0 586.77 L0 595.28 Z" class="st6"/>
			</g>
			<g id="shape38-70" transform="translate(0,-8.50394)">
				<title>Sheet.38</title>
				<path d="M0 595.28 L184.25 595.28 L184.25 563.87 L0 563.87 L0 595.28 Z" class="st6"/>
			</g>
			<g id="shape40-72" transform="translate(175.748,-39.9076)">
				<title>Sheet.40</title>
				<desc>parameter</desc>
			</g>
			<g id="shape36-73">
				<text x="4" y="574.67" class="st7">FlagArgument</text>			</g>
		</g>
		<g id="shape41-75" transform="translate(305.717,-493.176)">
			<title>Separator.164</title>
			<path d="M0 593.86 L178.58 593.86 L0 593.86 Z" class="st4"/>
			<path d="M0 593.86 L178.58 593.86" class="st5"/>
		</g>
		<g id="group42-78" transform="translate(399.26,-445.21)">
			<title>Class.165</title>
			<desc>DateRangeArgument</desc>
			<g id="shape43-79">
				<title>Sheet.43</title>
				<path d="M0 595.28 L184.25 595.28 L184.25 586.77 L0 586.77 L0 595.28 Z" class="st6"/>
			</g>
			<g id="shape44-81" transform="translate(0,-8.50394)">
				<title>Sheet.44</title>
				<path d="M0 595.28 L184.25 595.28 L184.25 563.87 L0 563.87 L0 595.28 Z" class="st6"/>
			</g>
			<g id="shape46-83" transform="translate(175.748,-39.9076)">
				<title>Sheet.46</title>
				<desc>parameter</desc>
			</g>
			<g id="shape42-84">
				<text x="4" y="574.67" class="st7">DateRangeArgument</text>			</g>
		</g>
		<g id="shape47-86" transform="translate(402.094,-448.045)">
			<title>Separator.170</title>
			<path d="M0 593.86 L178.58 593.86 L0 593.86 Z" class="st4"/>
			<path d="M0 593.86 L178.58 593.86" class="st5"/>
		</g>
		<g id="shape48-89" transform="translate(-415.701,193.302) rotate(-90)">
			<title>Multi-tree square</title>
			<path d="M0 595.28 L15.8 595.28" class="st10"/>
			<path d="M15.8 595.28 L15.8 620.79 L88.37 620.79" class="st10"/>
			<path d="M15.8 595.28 L15.8 525.83 L43.13 525.83" class="st10"/>
			<path d="M15.8 595.28 L15.8 715.75 L42.79 715.75" class="st10"/>
			<path d="M15.8 595.28 L15.8 810.71 L88.37 810.71" class="st10"/>
			<path d="M15.8 595.28 L15.8 907.09 L43.24 907.09" class="st10"/>
			<path d="M15.8 595.28 L1.63 595.28" class="st10"/>
		</g>
		<g id="group49-98" transform="translate(172.488,-402.388)">
			<title>Inheritance.199</title>
			<g id="shape49-99">
				<path d="M7.09 595.28 L7.09 612.37" class="st11"/>
			</g>
		</g>
		<g id="group54-104" transform="translate(579.685,-173.315)">
			<title>Class.210</title>
			<desc>CommandResult</desc>
			<g id="shape55-105">
				<title>Sheet.55</title>
				<path d="M0 595.28 L184.25 595.28 L184.25 586.77 L0 586.77 L0 595.28 Z" class="st6"/>
			</g>
			<g id="shape56-107" transform="translate(0,-8.50394)">
				<title>Sheet.56</title>
				<path d="M0 595.28 L184.25 595.28 L184.25 563.87 L0 563.87 L0 595.28 Z" class="st6"/>
			</g>
			<g id="shape58-109" transform="translate(175.748,-39.9076)">
				<title>Sheet.58</title>
				<desc>parameter</desc>
			</g>
			<g id="shape54-110">
				<text x="4" y="574.67" class="st7">CommandResult</text>			</g>
		</g>
		<g id="shape59-112" transform="translate(582.52,-176.15)">
			<title>Separator.215</title>
			<path d="M0 593.86 L178.58 593.86 L0 593.86 Z" class="st4"/>
			<path d="M0 593.86 L178.58 593.86" class="st5"/>
		</g>
		<g id="group60-115" transform="translate(287.15,-167.646)">
			<title>Interface.292</title>
			<desc>BaseCommand</desc>
			<g id="shape61-116">
				<title>Sheet.61</title>
				<path d="M0 595.28 L233.29 595.28 L233.29 586.77 L0 586.77 L0 595.28 Z" class="st1"/>
			</g>
			<g id="shape62-118" transform="translate(0,-8.50394)">
				<title>Sheet.62</title>
				<path d="M0 595.28 L233.29 595.28 L233.29 552.37 L0 552.37 L0 595.28 Z" class="st1"/>
			</g>
			<g id="shape63-120" transform="translate(0,-35.4076)">
				<title>Sheet.63</title>
				<desc>{Abstract}</desc>
				<text x="4" y="592.27" class="st2">{Abstract}</text>			</g>
			<g id="shape64-122" transform="translate(224.787,-51.4113)">
				<title>Sheet.64</title>
				<desc>parameter</desc>
			</g>
			<g id="shape60-123">
				<text x="4" y="574.67" class="st3">BaseCommand</text>			</g>
		</g>
		<g id="shape65-125" transform="translate(289.984,-170.481)">
			<title>Separator.297</title>
			<path d="M0 593.86 L227.62 593.86 L0 593.86 Z" class="st4"/>
			<path d="M0 593.86 L227.62 593.86" class="st5"/>
		</g>
		<g id="group66-128" transform="translate(311.669,-95.5276)">
			<title>Class.298</title>
			<desc>CommandMap</desc>
			<g id="shape67-129">
				<title>Sheet.67</title>
				<path d="M0 595.28 L184.25 595.28 L184.25 583.94 L0 583.94 L0 595.28 Z" class="st6"/>
			</g>
			<g id="shape68-131" transform="translate(0,-11.3386)">
				<title>Sheet.68</title>
				<path d="M0 595.28 L184.25 595.28 L184.25 563.87 L0 563.87 L0 595.28 Z" class="st6"/>
			</g>
			<g id="shape70-133" transform="translate(175.748,-42.7423)">
				<title>Sheet.70</title>
				<desc>parameter</desc>
			</g>
			<g id="shape66-134">
				<text x="4" y="571.84" class="st7">CommandMap</text>			</g>
		</g>
		<g id="shape71-136" transform="translate(314.504,-98.3622)">
			<title>Separator.303</title>
			<path d="M0 593.86 L178.58 593.86 L0 593.86 Z" class="st4"/>
			<path d="M0 593.86 L178.58 593.86" class="st5"/>
		</g>
		<g id="group72-139" transform="translate(396.709,-138.27)">
			<title>Composition.304</title>
			<g id="shape72-140">
				<path d="M7.09 595.28 L7.09 574.11 L7.09 565.9" class="st10"/>
			</g>
		</g>
		<g id="group77-143" transform="translate(382.11,-254.602)">
			<title>Class.320</title>
			<desc>XCommand</desc>
			<g id="shape78-144">
				<title>Sheet.78</title>
				<path d="M0 595.28 L184.25 595.28 L184.25 586.77 L0 586.77 L0 595.28 Z" class="st6"/>
			</g>
			<g id="shape79-146" transform="translate(0,-8.50394)">
				<title>Sheet.79</title>
				<path d="M0 595.28 L184.25 595.28 L184.25 563.87 L0 563.87 L0 595.28 Z" class="st6"/>
			</g>
			<g id="shape81-148" transform="translate(175.748,-39.9076)">
				<title>Sheet.81</title>
				<desc>parameter</desc>
			</g>
			<g id="shape77-149">
				<text x="4" y="574.67" class="st7">XCommand</text>			</g>
		</g>
		<g id="shape82-151" transform="translate(384.945,-257.436)">
			<title>Separator.325</title>
			<path d="M0 593.86 L178.58 593.86 L0 593.86 Z" class="st4"/>
			<path d="M0 593.86 L178.58 593.86" class="st5"/>
		</g>
		<g id="group83-154" transform="translate(467.15,-294.509)">
			<title>Aggregation.326</title>
			<g id="shape83-155">
				<path d="M7.09 579.8 L7.09 579.44 L7.09 562.13" class="st12"/>
			</g>
		</g>
		<g id="shape88-161" transform="translate(314.504,-101.197)">
			<title>Separator</title>
			<path d="M0 593.86 L178.58 593.86 L0 593.86 Z" class="st13"/>
			<path d="M0 593.86 L178.58 593.86" class="st5"/>
		</g>
		<g id="group89-164" transform="translate(579.685,-186.224)">
			<title>Dependency.343</title>
			<g id="shape89-165">
				<path d="M0 588.23 L-10.63 588.23 L-10.63 588.15 L-59.24 588.15" class="st14"/>
			</g>
		</g>
		<g id="group94-171" transform="translate(474.236,-254.602)">
			<title>Inheritance.348</title>
			<g id="shape94-172">
				<path d="M0 595.28 L0 605.91 L-70.44 605.91 L-70.44 620.26" class="st11"/>
			</g>
		</g>
		<g id="group99-177" transform="translate(566.362,-274.555)">
			<title>Dependency.271</title>
			<g id="shape99-178">
				<path d="M0 595.28 L140.74 595.28 L140.74 525.44" class="st14"/>
			</g>
		</g>
		<g id="group104-183" transform="translate(179.575,-248.627)">
			<title>Aggregation</title>
			<g id="shape104-184">
				<path d="M0 610.76 L0 611.12 L0 650.55 L107.57 650.55" class="st12"/>
			</g>
		</g>
		<g id="group109-189" transform="translate(382.11,-327.655)">
			<title>Class.398</title>
			<desc>CommandSummary</desc>
			<g id="shape110-190">
				<title>Sheet.110</title>
				<path d="M0 595.28 L184.25 595.28 L184.25 583.94 L0 583.94 L0 595.28 Z" class="st6"/>
			</g>
			<g id="shape111-192" transform="translate(0,-11.3386)">
				<title>Sheet.111</title>
				<path d="M0 595.28 L184.25 595.28 L184.25 563.87 L0 563.87 L0 595.28 Z" class="st6"/>
			</g>
			<g id="shape113-194" transform="translate(175.748,-42.7423)">
				<title>Sheet.113</title>
				<desc>parameter</desc>
			</g>
			<g id="shape109-195">
				<text x="4" y="571.84" class="st7">CommandSummary</text>			</g>
		</g>
		<g id="shape114-197" transform="translate(384.945,-330.489)">
			<title>Separator.403</title>
			<path d="M0 593.86 L178.58 593.86 L0 593.86 Z" class="st4"/>
			<path d="M0 593.86 L178.58 593.86" class="st5"/>
		</g>
		<g id="shape115-200" transform="translate(384.945,-333.324)">
			<title>Separator.404</title>
			<path d="M0 593.86 L178.58 593.86 L0 593.86 Z" class="st13"/>
			<path d="M0 593.86 L178.58 593.86" class="st5"/>
		</g>
		<g id="group116-203" transform="translate(614.976,-344.395)">
			<title>Interface.416</title>
			<desc>Dispatcher</desc>
			<g id="shape117-204">
				<title>Sheet.117</title>
				<path d="M0 595.28 L184.25 595.28 L184.25 586.77 L0 586.77 L0 595.28 Z" class="st1"/>
			</g>
			<g id="shape118-206" transform="translate(0,-8.50394)">
				<title>Sheet.118</title>
				<path d="M0 595.28 L184.25 595.28 L184.25 552.37 L0 552.37 L0 595.28 Z" class="st1"/>
			</g>
			<g id="shape119-208" transform="translate(0,-35.4076)">
				<title>Sheet.119</title>
				<desc>&#60;&#60;Interface&#62;&#62;</desc>
				<text x="4" y="592.27" class="st2">&#60;&#60;Interface&#62;&#62;</text>			</g>
			<g id="shape120-210" transform="translate(175.748,-51.4113)">
				<title>Sheet.120</title>
				<desc>parameter</desc>
			</g>
			<g id="shape116-211">
				<text x="4" y="574.67" class="st3">Dispatcher</text>			</g>
		</g>
		<g id="shape121-213" transform="translate(617.811,-347.23)">
			<title>Separator.421</title>
			<path d="M0 593.86 L178.58 593.86 L0 593.86 Z" class="st4"/>
			<path d="M0 593.86 L178.58 593.86" class="st5"/>
		</g>
	</g>
</svg>
