<?xml version="1.0" encoding="UTF-8" standalone="no"?>
<!DOCTYPE svg PUBLIC "-//W3C//DTD SVG 1.1//EN" "http://www.w3.org/Graphics/SVG/1.1/DTD/svg11.dtd">
<!-- Generated by Microsoft Visio, SVG Export Model Component.svg Page-1 -->
<svg xmlns="http://www.w3.org/2000/svg" xmlns:xlink="http://www.w3.org/1999/xlink" xmlns:ev="http://www.w3.org/2001/xml-events"
		width="6.77269in" height="5.33723in" viewBox="0 0 487.634 384.281" xml:space="preserve" color-interpolation-filters="sRGB"
		class="st14">
	<style type="text/css">
	<![CDATA[
		.st1 {fill:#75d175;stroke:#339933;stroke-linecap:round;stroke-linejoin:round;stroke-width:0.5}
		.st2 {fill:#194c19;font-family:Segoe UI;font-size:0.833336em}
		.st3 {fill:#194c19;font-family:Segoe UI;font-size:1.00001em}
		.st4 {fill:#339933}
		.st5 {stroke:#339933;stroke-dasharray:2,1;stroke-linecap:butt;stroke-width:1}
		.st6 {fill:#339933;stroke:#339933;stroke-linecap:round;stroke-linejoin:round;stroke-width:0.5}
		.st7 {fill:#ffffff;font-family:Segoe UI;font-size:1.00001em}
		.st8 {marker-end:url(#mrkr14-31);stroke:#339933;stroke-dasharray:7,5;stroke-linecap:round;stroke-linejoin:round;stroke-width:1}
		.st9 {fill:#339933;fill-opacity:1;stroke:#339933;stroke-opacity:1;stroke-width:0.28409090909091}
		.st10 {stroke:#339933;stroke-linecap:round;stroke-linejoin:round;stroke-width:1}
		.st11 {marker-start:url(#mrkr22-72);stroke:#339933;stroke-linecap:round;stroke-linejoin:round;stroke-width:1}
		.st12 {marker-end:url(#mrkr12-107);stroke:#339933;stroke-linecap:round;stroke-linejoin:round;stroke-width:1}
		.st13 {marker-end:url(#mrkr14-31);stroke:#339933;stroke-linecap:round;stroke-linejoin:round;stroke-width:1}
		.st14 {fill:none;fill-rule:evenodd;font-size:12px;overflow:visible;stroke-linecap:square;stroke-miterlimit:3}
	]]>
	</style>

	<defs id="Markers">
		<g id="lend14">
			<path d="M 3 -1 L 0 0 L 3 1 L 3 -1 " style="stroke-linecap:round;stroke-linejoin:round;fill:none"/>
		</g>
		<marker id="mrkr14-31" class="st9" refX="-10.56" orient="auto" markerUnits="strokeWidth" overflow="visible">
			<use xlink:href="#lend14" transform="scale(-3.52,-3.52) "/>
		</marker>
		<g id="lend22">
			<path d="M 0 0 L 2.25 -1.125 L 4.5 0 L 2.25 1.125 L 0 0 " style="stroke-linecap:round;stroke-linejoin:round;fill:none"/>
		</g>
		<marker id="mrkr22-72" class="st9" refX="15.48" orient="auto" markerUnits="strokeWidth" overflow="visible">
			<use xlink:href="#lend22" transform="scale(3.52) "/>
		</marker>
		<g id="lend12">
			<path d="M 3 1 L 0 0 L 3 -1 " style="stroke-linecap:round;stroke-linejoin:round;fill:none"/>
		</g>
		<marker id="mrkr12-107" class="st9" orient="auto" markerUnits="strokeWidth" overflow="visible">
			<use xlink:href="#lend12" transform="scale(-3.52,-3.52) "/>
		</marker>
	</defs>
	<g>
		<title>Page-1</title>
		<g id="group1-1" transform="translate(18.25,-162.623)">
			<title>Interface</title>
			<desc>ImmutableTodoList</desc>
			<g id="shape2-2">
				<title>Sheet.2</title>
				<path d="M0 384.28 L184.25 384.28 L184.25 375.78 L0 375.78 L0 384.28 Z" class="st1"/>
			</g>
			<g id="shape3-4" transform="translate(0,-8.50394)">
				<title>Sheet.3</title>
				<path d="M0 384.28 L184.25 384.28 L184.25 341.37 L0 341.37 L0 384.28 Z" class="st1"/>
			</g>
			<g id="shape4-6" transform="translate(0,-35.4076)">
				<title>Sheet.4</title>
				<desc>&#60;&#60;Interface&#62;&#62;</desc>
				<text x="4" y="381.28" class="st2">&#60;&#60;Interface&#62;&#62;</text>			</g>
			<g id="shape5-8" transform="translate(175.748,-51.4113)">
				<title>Sheet.5</title>
				<desc>parameter</desc>
			</g>
			<g id="shape1-9">
				<text x="4" y="363.68" class="st3">ImmutableTodoList</text>			</g>
		</g>
		<g id="shape7-11" transform="translate(21.0846,-165.458)">
			<title>Separator</title>
			<path d="M0 382.86 L178.58 382.86 L0 382.86 Z" class="st4"/>
			<path d="M0 382.86 L178.58 382.86" class="st5"/>
		</g>
		<g id="group15-14" transform="translate(167.494,-18.25)">
			<title>Class</title>
			<desc>TodoList</desc>
			<g id="shape16-15">
				<title>Sheet.16</title>
				<path d="M0 384.28 L184.25 384.28 L184.25 375.78 L0 375.78 L0 384.28 Z" class="st6"/>
			</g>
			<g id="shape17-17" transform="translate(0,-8.50394)">
				<title>Sheet.17</title>
				<path d="M0 384.28 L184.25 384.28 L184.25 352.88 L0 352.88 L0 384.28 Z" class="st6"/>
			</g>
			<g id="shape19-19" transform="translate(175.748,-39.9076)">
				<title>Sheet.19</title>
				<desc>parameter</desc>
			</g>
			<g id="shape15-20">
				<text x="4" y="363.68" class="st7">TodoList</text>			</g>
		</g>
		<g id="shape21-22" transform="translate(170.329,-21.0846)">
			<title>Separator.21</title>
			<path d="M0 382.86 L178.58 382.86 L0 382.86 Z" class="st4"/>
			<path d="M0 382.86 L178.58 382.86" class="st5"/>
		</g>
		<g id="group48-25" transform="translate(167.494,-38.2038)">
			<title>Interface Realization.48</title>
			<g id="shape48-26">
				<path d="M0 384.28 L-57.12 384.28 L-57.12 349.87" class="st8"/>
			</g>
		</g>
		<g id="group53-32" transform="translate(103.289,-241.993)">
			<title>Composition</title>
			<g id="shape53-33">
				<path d="M7.09 384.28 L7.09 412.24" class="st10"/>
			</g>
		</g>
		<g id="group58-36" transform="translate(18.25,-241.993)">
			<title>Interface.58</title>
			<desc>ImmutableTask</desc>
			<g id="shape59-37">
				<title>Sheet.59</title>
				<path d="M0 384.28 L184.25 384.28 L184.25 375.78 L0 375.78 L0 384.28 Z" class="st1"/>
			</g>
			<g id="shape60-39" transform="translate(0,-8.50394)">
				<title>Sheet.60</title>
				<path d="M0 384.28 L184.25 384.28 L184.25 341.37 L0 341.37 L0 384.28 Z" class="st1"/>
			</g>
			<g id="shape61-41" transform="translate(0,-35.4076)">
				<title>Sheet.61</title>
				<desc>&#60;&#60;Interface&#62;&#62;</desc>
				<text x="4" y="381.28" class="st2">&#60;&#60;Interface&#62;&#62;</text>			</g>
			<g id="shape62-43" transform="translate(175.748,-51.4113)">
				<title>Sheet.62</title>
				<desc>parameter</desc>
			</g>
			<g id="shape58-44">
				<text x="4" y="363.68" class="st3">ImmutableTask</text>			</g>
		</g>
		<g id="shape63-46" transform="translate(21.0846,-244.828)">
			<title>Separator.63</title>
			<path d="M0 382.86 L178.58 382.86 L0 382.86 Z" class="st4"/>
			<path d="M0 382.86 L178.58 382.86" class="st5"/>
		</g>
		<g id="group64-49" transform="translate(18.25,-326.123)">
			<title>Class.64</title>
			<desc>Task</desc>
			<g id="shape65-50">
				<title>Sheet.65</title>
				<path d="M0 384.28 L184.25 384.28 L184.25 375.78 L0 375.78 L0 384.28 Z" class="st6"/>
			</g>
			<g id="shape66-52" transform="translate(0,-8.50394)">
				<title>Sheet.66</title>
				<path d="M0 384.28 L184.25 384.28 L184.25 352.88 L0 352.88 L0 384.28 Z" class="st6"/>
			</g>
			<g id="shape68-54" transform="translate(175.748,-39.9076)">
				<title>Sheet.68</title>
				<desc>parameter</desc>
			</g>
			<g id="shape64-55">
				<text x="4" y="363.68" class="st7">Task</text>			</g>
		</g>
		<g id="shape69-57" transform="translate(21.0846,-328.958)">
			<title>Separator.69</title>
			<path d="M0 382.86 L178.58 382.86 L0 382.86 Z" class="st4"/>
			<path d="M0 382.86 L178.58 382.86" class="st5"/>
		</g>
		<g id="group70-60" transform="translate(103.289,-326.123)">
			<title>Interface Realization.70</title>
			<g id="shape70-61">
				<path d="M7.09 384.28 L7.09 407.13" class="st8"/>
			</g>
		</g>
		<g id="group85-66" transform="translate(285.132,-260.612)">
			<title>Aggregation</title>
			<g id="shape85-67">
				<path d="M-15.48 377.19 L-15.84 377.19 L-82.63 377.19" class="st11"/>
			</g>
		</g>
		<g id="group90-73" transform="translate(285.132,-326.123)">
			<title>Class.90</title>
			<desc>Tag</desc>
			<g id="shape91-74">
				<title>Sheet.91</title>
				<path d="M0 384.28 L184.25 384.28 L184.25 375.78 L0 375.78 L0 384.28 Z" class="st6"/>
			</g>
			<g id="shape92-76" transform="translate(0,-8.50394)">
				<title>Sheet.92</title>
				<path d="M0 384.28 L184.25 384.28 L184.25 352.88 L0 352.88 L0 384.28 Z" class="st6"/>
			</g>
			<g id="shape94-78" transform="translate(175.748,-39.9076)">
				<title>Sheet.94</title>
				<desc>parameter</desc>
			</g>
			<g id="shape90-79">
				<text x="4" y="363.68" class="st7">Tag</text>			</g>
		</g>
		<g id="shape95-81" transform="translate(287.967,-328.958)">
			<title>Separator.95</title>
			<path d="M0 382.86 L178.58 382.86 L0 382.86 Z" class="st4"/>
			<path d="M0 382.86 L178.58 382.86" class="st5"/>
		</g>
		<g id="group120-84" transform="translate(202.502,-338.99)">
			<title>Composition.120</title>
			<g id="shape120-85">
				<path d="M0 377.19 L82.63 377.19" class="st10"/>
			</g>
		</g>
		<g id="group125-88" transform="translate(285.132,-162.623)">
			<title>Interface.125</title>
			<desc>Model</desc>
			<g id="shape126-89">
				<title>Sheet.126</title>
				<path d="M0 384.28 L184.25 384.28 L184.25 375.78 L0 375.78 L0 384.28 Z" class="st1"/>
			</g>
			<g id="shape127-91" transform="translate(0,-8.50394)">
				<title>Sheet.127</title>
				<path d="M0 384.28 L184.25 384.28 L184.25 341.37 L0 341.37 L0 384.28 Z" class="st1"/>
			</g>
			<g id="shape128-93" transform="translate(0,-35.4076)">
				<title>Sheet.128</title>
				<desc>&#60;&#60;Interface&#62;&#62;</desc>
				<text x="4" y="381.28" class="st2">&#60;&#60;Interface&#62;&#62;</text>			</g>
			<g id="shape129-95" transform="translate(175.748,-51.4113)">
				<title>Sheet.129</title>
				<desc>parameter</desc>
			</g>
			<g id="shape125-96">
				<text x="4" y="363.68" class="st3">Model</text>			</g>
		</g>
		<g id="shape130-98" transform="translate(287.967,-165.458)">
			<title>Separator.130</title>
			<path d="M0 382.86 L178.58 382.86 L0 382.86 Z" class="st4"/>
			<path d="M0 382.86 L178.58 382.86" class="st5"/>
		</g>
		<g id="group131-101" transform="translate(202.502,-259.306)">
			<title>Directed Association</title>
			<g id="shape131-102">
				<path d="M0 384.28 L10.63 384.28 L10.63 455.26 L82.63 455.26" class="st12"/>
			</g>
		</g>
		<g id="group136-108" transform="translate(18.25,-83.1705)">
			<title>Interface.136</title>
			<desc>TodoListModel</desc>
			<g id="shape137-109">
				<title>Sheet.137</title>
				<path d="M0 384.28 L184.25 384.28 L184.25 375.78 L0 375.78 L0 384.28 Z" class="st1"/>
			</g>
			<g id="shape138-111" transform="translate(0,-8.50394)">
				<title>Sheet.138</title>
				<path d="M0 384.28 L184.25 384.28 L184.25 341.37 L0 341.37 L0 384.28 Z" class="st1"/>
			</g>
			<g id="shape139-113" transform="translate(0,-35.4076)">
				<title>Sheet.139</title>
				<desc>&#60;&#60;Interface&#62;&#62;</desc>
				<text x="4" y="381.28" class="st2">&#60;&#60;Interface&#62;&#62;</text>			</g>
			<g id="shape140-115" transform="translate(175.748,-51.4113)">
				<title>Sheet.140</title>
				<desc>parameter</desc>
			</g>
			<g id="shape136-116">
				<text x="4" y="363.68" class="st3">TodoListModel</text>			</g>
		</g>
		<g id="shape141-118" transform="translate(21.0846,-86.0051)">
			<title>Separator.141</title>
			<path d="M0 382.86 L178.58 382.86 L0 382.86 Z" class="st4"/>
			<path d="M0 382.86 L178.58 382.86" class="st5"/>
		</g>
		<g id="group142-121" transform="translate(103.289,-134.582)">
			<title>Inheritance</title>
			<g id="shape142-122">
				<path d="M7.09 384.28 L7.09 366.8" class="st13"/>
			</g>
		</g>
		<g id="group147-127" transform="translate(285.132,-247.745)">
			<title>Class.147</title>
			<desc>TodoModel</desc>
			<g id="shape148-128">
				<title>Sheet.148</title>
				<path d="M0 384.28 L184.25 384.28 L184.25 375.78 L0 375.78 L0 384.28 Z" class="st6"/>
			</g>
			<g id="shape149-130" transform="translate(0,-8.50394)">
				<title>Sheet.149</title>
				<path d="M0 384.28 L184.25 384.28 L184.25 352.88 L0 352.88 L0 384.28 Z" class="st6"/>
			</g>
			<g id="shape151-132" transform="translate(175.748,-39.9076)">
				<title>Sheet.151</title>
				<desc>parameter</desc>
			</g>
			<g id="shape147-133">
				<text x="4" y="363.68" class="st7">TodoModel</text>			</g>
		</g>
		<g id="shape152-135" transform="translate(287.967,-250.58)">
			<title>Separator.152</title>
			<path d="M0 382.86 L178.58 382.86 L0 382.86 Z" class="st4"/>
			<path d="M0 382.86 L178.58 382.86" class="st5"/>
		</g>
		<g id="group155-138" transform="translate(370.171,-247.745)">
			<title>Interface Realization.155</title>
			<g id="shape155-139">
				<path d="M7.09 384.28 L7.09 407.43" class="st8"/>
			</g>
		</g>
	</g>
</svg>
