<?xml version="1.0" encoding="UTF-8" standalone="no"?>
<!DOCTYPE svg PUBLIC "-//W3C//DTD SVG 1.1//EN" "http://www.w3.org/Graphics/SVG/1.1/DTD/svg11.dtd">
<!-- Generated by Microsoft Visio, SVG Export Sequence Diagram.svg Page-1 -->
<svg xmlns="http://www.w3.org/2000/svg" xmlns:xlink="http://www.w3.org/1999/xlink" xmlns:ev="http://www.w3.org/2001/xml-events"
		width="8.75498in" height="3.30903in" viewBox="0 0 630.358 238.25" xml:space="preserve" color-interpolation-filters="sRGB"
		class="st14">
	<style type="text/css">
	<![CDATA[
		.st1 {fill:none;stroke:#535991;stroke-linecap:round;stroke-linejoin:round;stroke-width:0.5}
		.st2 {fill:#535991;font-family:Source Code Pro;font-size:0.833336em;font-stretch:semi-expanded}
		.st3 {fill:#535991;stroke:#4d5388;stroke-linecap:round;stroke-linejoin:round;stroke-width:0.5}
		.st4 {fill:#405369;stroke:#ffffff;stroke-linecap:round;stroke-linejoin:round;stroke-width:0.5}
		.st5 {stroke:#3b4d62;stroke-dasharray:3.5,2.5;stroke-linecap:round;stroke-linejoin:round;stroke-width:0.5}
		.st6 {fill:#ffffff;font-family:Source Code Pro;font-size:1.00001em}
		.st7 {marker-end:url(#mrkr4-68);stroke:#4d5388;stroke-linecap:round;stroke-linejoin:round;stroke-width:0.5}
		.st8 {fill:#4d5388;fill-opacity:1;stroke:#4d5388;stroke-opacity:1;stroke-width:0.13368983957219}
		.st9 {fill:#ffffff;stroke:none;stroke-linecap:butt}
		.st10 {fill:#3b3f6a;font-family:Source Code Pro;font-size:0.666664em}
		.st11 {font-size:1em}
		.st12 {fill:#ffffff;stroke:none;stroke-linecap:butt;stroke-width:7.2}
		.st13 {marker-end:url(#mrkr3-105);stroke:#4d5388;stroke-dasharray:3.5,2.5;stroke-linecap:round;stroke-linejoin:round;stroke-width:0.5}
		.st14 {fill:none;fill-rule:evenodd;font-size:12px;overflow:visible;stroke-linecap:square;stroke-miterlimit:3}
	]]>
	</style>

	<defs id="Patterns_And_Gradients">
		<linearGradient id="grad0-11" x1="0" y1="0" x2="1" y2="0" gradientTransform="rotate(90 0.5 0.5)">
			<stop offset="0.01" stop-color="#f8f8f8" stop-opacity="1"/>
			<stop offset="0.5" stop-color="#eeeeee" stop-opacity="1"/>
			<stop offset="1" stop-color="#f8f8f8" stop-opacity="1"/>
		</linearGradient>
	</defs>
	<defs id="Markers">
		<g id="lend4">
			<path d="M 2 1 L 0 0 L 2 -1 L 2 1 " style="stroke:none"/>
		</g>
		<marker id="mrkr4-68" class="st8" refX="-14.96" orient="auto" markerUnits="strokeWidth" overflow="visible">
			<use xlink:href="#lend4" transform="scale(-7.48,-7.48) "/>
		</marker>
		<g id="lend3">
			<path d="M 2 1 L 0 0 L 2 -1 " style="stroke-linecap:round;stroke-linejoin:round;fill:none"/>
		</g>
		<marker id="mrkr3-105" class="st8" orient="auto" markerUnits="strokeWidth" overflow="visible">
			<use xlink:href="#lend3" transform="scale(-7.48,-7.48) "/>
		</marker>
	</defs>
	<g>
		<title>Page-1</title>
		<g id="group21-1" transform="translate(133.053,-57.7543)">
			<title>Subsystem</title>
			<g id="group22-2">
				<title>Sheet.22</title>
				<g id="shape23-3" transform="translate(2.83465,2.83465)">
					<title>Sheet.23</title>
				</g>
				<g id="shape22-5">
					<path d="M0 238.25 L141.73 238.25 L283.46 238.25 L283.46 76 L141.73 76 L0 76 L0 238.25 Z" class="st1"/>
				</g>
			</g>
			<g id="group24-7" transform="translate(0,-140.986)">
				<title>Sheet.24</title>
				<desc>Logic</desc>
				<g id="shape25-8">
					<title>Sheet.25</title>
				</g>
				<g id="shape24-12">
					<text x="6" y="230.62" class="st2">Logic</text>				</g>
			</g>
		</g>
		<g id="group31-15" transform="translate(18.25,-66.2582)">
			<title>Sheet.31</title>
			<g id="shape7-16" transform="translate(-208.487,253.17) rotate(-90)">
				<title>Activation</title>
				<rect x="0" y="229.747" width="88.62" height="8.50394" class="st3"/>
			</g>
			<g id="group11-18" transform="translate(-2.79776E-14,-98.4666)">
				<title>Object lifeline</title>
				<desc>UI</desc>
				<g id="shape12-19">
					<title>Sheet.12</title>
					<rect x="0" y="212.739" width="51.0236" height="25.5118" class="st4"/>
				</g>
				<g id="shape13-21" transform="translate(17.0079,-29.0551)">
					<title>Sheet.13</title>
					<path d="M8.5 238.25 a0 0 0 1 1 0 0 a0 0 0 1 1 0 0 Z" class="st4"/>
				</g>
				<g id="shape14-23" transform="translate(17.0079,146.592)">
					<title>Sheet.14</title>
				</g>
				<g id="shape15-25" transform="translate(263.762,238.25) rotate(90)">
					<title>Sheet.15</title>
					<path d="M0 238.25 L128.98 238.25" class="st5"/>
				</g>
				<g id="shape11-28">
					<rect x="0" y="212.739" width="51.0236" height="25.5118" class="st4"/>
					<text x="18.31" y="229.09" class="st6">UI</text>				</g>
			</g>
		</g>
		<g id="group46-31" transform="translate(229.431,-66.2582)">
			<title>Sheet.46</title>
			<g id="shape40-32" transform="translate(-198.565,233.327) rotate(-90)">
				<title>Activation</title>
				<rect x="0" y="229.747" width="59.1546" height="8.50394" class="st3"/>
			</g>
			<g id="group41-34" transform="translate(-6.37795,-98.0937)">
				<title>Object lifeline</title>
				<desc>Dispatcher</desc>
				<g id="shape42-35" transform="translate(16.2992,-0.18649)">
					<title>Sheet.42</title>
					<rect x="0" y="212.739" width="51.0236" height="25.5118" class="st4"/>
				</g>
				<g id="shape43-37" transform="translate(33.3071,-29.4281)">
					<title>Sheet.43</title>
					<path d="M8.5 238.25 a0 0 0 1 1 0 0 a0 0 0 1 1 0 0 Z" class="st4"/>
				</g>
				<g id="shape44-39" transform="translate(27.874,146.352)">
					<title>Sheet.44</title>
				</g>
				<g id="shape45-41" transform="translate(280.061,238.25) rotate(90)">
					<title>Sheet.45</title>
					<path d="M0 238.25 L128.6 238.25" class="st5"/>
				</g>
				<g id="shape41-44">
					<rect x="0" y="212.366" width="83.622" height="25.8848" class="st4"/>
					<text x="5.81" y="228.91" class="st6">Dispatcher</text>				</g>
			</g>
		</g>
		<g id="group47-47" transform="translate(337.148,-66.2582)">
			<title>Sheet.47</title>
			<g id="shape48-48" transform="translate(-198.565,225.196) rotate(-90)">
				<title>Activation</title>
				<rect x="0" y="229.747" width="44.31" height="8.50394" class="st3"/>
			</g>
			<g id="group49-50" transform="translate(0,-98.0937)">
				<title>Object lifeline</title>
				<desc>Command</desc>
				<g id="shape50-51" transform="translate(9.92126,-0.18649)">
					<title>Sheet.50</title>
					<rect x="0" y="212.739" width="51.0236" height="25.5118" class="st4"/>
				</g>
				<g id="shape51-53" transform="translate(26.9291,-29.4281)">
					<title>Sheet.51</title>
					<path d="M8.5 238.25 a0 0 0 1 1 0 0 a0 0 0 1 1 0 0 Z" class="st4"/>
				</g>
				<g id="shape52-55" transform="translate(23.622,146.352)">
					<title>Sheet.52</title>
				</g>
				<g id="shape53-57" transform="translate(273.684,238.25) rotate(90)">
					<title>Sheet.53</title>
					<path d="M0 238.25 L128.6 238.25" class="st5"/>
				</g>
				<g id="shape49-60">
					<rect x="0" y="212.366" width="70.8661" height="25.8848" class="st4"/>
					<text x="10.23" y="228.91" class="st6">Command</text>				</g>
			</g>
		</g>
		<g id="shape74-63" transform="translate(48.0138,-132.872)">
			<title>Message</title>
			<desc>String input execute()</desc>
			<path d="M0 231.16 L111.29 231.16" class="st7"/>
			<rect x="30.5862" y="221.564" width="57.5991" height="19.1997" class="st9"/>
			<text x="30.59" y="228.76" class="st10">String input <tspan x="37.79" dy="1.2em" class="st11">execute</tspan>()</text>		</g>
		<g id="shape78-72" transform="translate(171.878,-123.25)">
			<title>Message.78</title>
			<desc>ParseResult</desc>
			<path d="M0 231.16 L81.25 231.16" class="st7"/>
			<rect x="17.9676" y="226.364" width="52.7992" height="9.59985" class="st12"/>
			<text x="17.97" y="233.56" class="st10">ParseResult</text>		</g>
		<g id="shape79-79" transform="translate(269.572,-116.536)">
			<title>Message.79</title>
			<desc>BaseCommand</desc>
			<path d="M0 231.16 L91.28 231.16" class="st7"/>
			<rect x="22.9789" y="226.364" width="52.7992" height="9.59985" class="st9"/>
			<text x="22.98" y="233.56" class="st10">BaseCommand</text>		</g>
		<g id="shape80-86" transform="translate(376.455,-125.04)">
			<title>Message.80</title>
			<desc>add/delete/etc.</desc>
			<path d="M0 245.34 L92.11 245.34" class="st7"/>
			<rect x="13.7958" y="240.537" width="71.9989" height="9.59985" class="st9"/>
			<text x="13.8" y="247.74" class="st10">add/delete/etc.</text>		</g>
		<g id="shape81-93" transform="translate(484.701,-106.242)">
			<title>Message.81</title>
			<desc>save</desc>
			<path d="M0 231.16 L80.24 231.16" class="st7"/>
			<rect x="34.2613" y="226.364" width="19.1997" height="9.59985" class="st12"/>
			<text x="34.26" y="233.56" class="st10">save</text>		</g>
		<g id="shape82-100" transform="translate(372.581,-72.2259)">
			<title>Return Message</title>
			<path d="M0 231.16 L-323.43 231.16" class="st13"/>
		</g>
		<g id="shape136-106" transform="translate(572.423,-57.0083)">
			<title>Return Message.136</title>
			<path d="M0 231.16 L-523.84 231.16" class="st13"/>
		</g>
		<g id="shape191-111" transform="translate(476.045,-64.095)">
			<title>Return Message.191</title>
			<path d="M0 231.16 L-427.21 231.16" class="st13"/>
		</g>
		<g id="group192-116" transform="translate(444.864,-79.3125)">
			<title>Sheet.192</title>
			<g id="shape55-117" transform="translate(-198.565,246.381) rotate(-90)">
				<title>Activation.55</title>
				<rect x="0" y="229.747" width="46.7717" height="8.50394" class="st3"/>
			</g>
			<g id="group56-119" transform="translate(0,-85.0394)">
				<title>Object lifeline.56</title>
				<desc>Model</desc>
				<g id="shape57-120" transform="translate(9.92126,-0.18649)">
					<title>Sheet.57</title>
					<rect x="0" y="212.739" width="51.0236" height="25.5118" class="st4"/>
				</g>
				<g id="shape58-122" transform="translate(26.9291,-29.4281)">
					<title>Sheet.58</title>
					<path d="M8.5 238.25 a0 0 0 1 1 0 0 a0 0 0 1 1 0 0 Z" class="st4"/>
				</g>
				<g id="shape59-124" transform="translate(23.622,146.352)">
					<title>Sheet.59</title>
				</g>
				<g id="shape60-126" transform="translate(273.684,238.25) rotate(90)">
					<title>Sheet.60</title>
					<path d="M0 238.25 L128.6 238.25" class="st5"/>
				</g>
				<g id="shape56-129">
					<rect x="0" y="212.366" width="70.8661" height="25.8848" class="st4"/>
					<text x="17.43" y="228.91" class="st6">Model</text>				</g>
			</g>
		</g>
		<g id="group193-132" transform="translate(541.242,-64.095)">
			<title>Sheet.193</title>
			<g id="shape62-133" transform="translate(-198.565,238.25) rotate(-90)">
				<title>Activation</title>
				<rect x="0" y="229.747" width="49.2333" height="8.50394" class="st3"/>
			</g>
			<g id="group63-135" transform="translate(0,-100.257)">
				<title>Object lifeline</title>
				<desc>Storage</desc>
				<g id="shape64-136" transform="translate(9.92126,-0.18649)">
					<title>Sheet.64</title>
					<rect x="0" y="212.739" width="51.0236" height="25.5118" class="st4"/>
				</g>
				<g id="shape65-138" transform="translate(26.9291,-29.4281)">
					<title>Sheet.65</title>
					<path d="M8.5 238.25 a0 0 0 1 1 0 0 a0 0 0 1 1 0 0 Z" class="st4"/>
				</g>
				<g id="shape66-140" transform="translate(23.622,146.352)">
					<title>Sheet.66</title>
				</g>
				<g id="shape67-142" transform="translate(273.684,238.25) rotate(90)">
					<title>Sheet.67</title>
					<path d="M0 238.25 L128.6 238.25" class="st5"/>
				</g>
				<g id="shape63-145">
					<rect x="0" y="212.366" width="70.8661" height="25.8848" class="st4"/>
					<text x="10.23" y="228.91" class="st6">Storage</text>				</g>
			</g>
		</g>
		<g id="group194-148" transform="translate(141.557,-66.2582)">
			<title>Sheet.194</title>
			<g id="shape33-149" transform="translate(-204.518,238.25) rotate(-90)">
				<title>Activation</title>
				<rect x="0" y="229.747" width="73.7008" height="8.50394" class="st3"/>
			</g>
			<g id="group34-151" transform="translate(0,-98.4666)">
				<title>Object lifeline</title>
				<desc>Parser</desc>
				<g id="shape35-152" transform="translate(4.25197,0)">
					<title>Sheet.35</title>
					<rect x="0" y="212.739" width="51.0236" height="25.5118" class="st4"/>
				</g>
				<g id="shape36-154" transform="translate(21.2598,-29.0551)">
					<title>Sheet.36</title>
					<path d="M8.5 238.25 a0 0 0 1 1 0 0 a0 0 0 1 1 0 0 Z" class="st4"/>
				</g>
				<g id="shape37-156" transform="translate(19.8425,146.592)">
					<title>Sheet.37</title>
				</g>
				<g id="shape38-158" transform="translate(268.014,238.25) rotate(90)">
					<title>Sheet.38</title>
					<path d="M0 238.25 L128.98 238.25" class="st5"/>
				</g>
				<g id="shape34-161">
					<rect x="0" y="212.739" width="59.5276" height="25.5118" class="st4"/>
					<text x="8.16" y="229.09" class="st6">Parser</text>				</g>
			</g>
		</g>
	</g>
</svg>
