<?xml version="1.0" encoding="UTF-8" standalone="no"?>
<!DOCTYPE svg PUBLIC "-//W3C//DTD SVG 1.1//EN" "http://www.w3.org/Graphics/SVG/1.1/DTD/svg11.dtd">
<!-- Generated by Microsoft Visio, SVG Export Storage Component.svg Page-1 -->
<svg xmlns="http://www.w3.org/2000/svg" xmlns:xlink="http://www.w3.org/1999/xlink" xmlns:ev="http://www.w3.org/2001/xml-events"
		width="8.26772in" height="11.6929in" viewBox="0 0 595.276 841.89" xml:space="preserve" color-interpolation-filters="sRGB"
		class="st17">
	<style type="text/css">
	<![CDATA[
		.st1 {fill:#00cccc;stroke:#00aba9;stroke-linecap:round;stroke-linejoin:round;stroke-width:0.5}
		.st2 {fill:#005554;font-family:Segoe UI;font-size:0.833336em}
		.st3 {fill:#005554;font-family:Segoe UI;font-size:1.00001em}
		.st4 {fill:#00aba9}
		.st5 {stroke:#00aba9;stroke-dasharray:2,1;stroke-linecap:butt;stroke-width:1}
		.st6 {fill:#00aba9;stroke:#00aba9;stroke-linecap:round;stroke-linejoin:round;stroke-width:0.5}
		.st7 {fill:#ffffff;font-family:Segoe UI;font-size:1.00001em}
		.st8 {marker-end:url(#mrkr14-31);stroke:#00aba9;stroke-dasharray:7,5;stroke-linecap:round;stroke-linejoin:round;stroke-width:1}
		.st9 {fill:#00aba9;fill-opacity:1;stroke:#00aba9;stroke-opacity:1;stroke-width:0.28409090909091}
		.st10 {marker-start:url(#mrkr22-65);stroke:#00aba9;stroke-linecap:round;stroke-linejoin:round;stroke-width:1}
		.st11 {marker-end:url(#mrkr12-91);stroke:#00aba9;stroke-dasharray:7,5;stroke-linecap:round;stroke-linejoin:round;stroke-width:1}
		.st12 {marker-end:url(#mrkr14-117);stroke:#1ba1e2;stroke-linecap:round;stroke-linejoin:round;stroke-width:1}
		.st13 {fill:#1ba1e2;fill-opacity:1;stroke:#1ba1e2;stroke-opacity:1;stroke-width:0.28409090909091}
		.st14 {marker-end:url(#mrkr14-117);stroke:#1ba1e2;stroke-dasharray:7,5;stroke-linecap:round;stroke-linejoin:round;stroke-width:1}
		.st15 {fill:#d80073;stroke:#ffffff;stroke-linecap:round;stroke-linejoin:round;stroke-width:0.5}
		.st16 {marker-end:url(#mrkr12-152);stroke:#1ba1e2;stroke-linecap:round;stroke-linejoin:round;stroke-width:1}
		.st17 {fill:none;fill-rule:evenodd;font-size:12px;overflow:visible;stroke-linecap:square;stroke-miterlimit:3}
	]]>
	</style>

	<defs id="Markers">
		<g id="lend14">
			<path d="M 3 -1 L 0 0 L 3 1 L 3 -1 " style="stroke-linecap:round;stroke-linejoin:round;fill:none"/>
		</g>
		<marker id="mrkr14-31" class="st9" refX="-10.56" orient="auto" markerUnits="strokeWidth" overflow="visible">
			<use xlink:href="#lend14" transform="scale(-3.52,-3.52) "/>
		</marker>
		<g id="lend22">
			<path d="M 0 0 L 2.25 -1.125 L 4.5 0 L 2.25 1.125 L 0 0 " style="stroke-linecap:round;stroke-linejoin:round;fill:none"/>
		</g>
		<marker id="mrkr22-65" class="st9" refX="15.48" orient="auto" markerUnits="strokeWidth" overflow="visible">
			<use xlink:href="#lend22" transform="scale(3.52) "/>
		</marker>
		<g id="lend12">
			<path d="M 3 1 L 0 0 L 3 -1 " style="stroke-linecap:round;stroke-linejoin:round;fill:none"/>
		</g>
		<marker id="mrkr12-91" class="st9" orient="auto" markerUnits="strokeWidth" overflow="visible">
			<use xlink:href="#lend12" transform="scale(-3.52,-3.52) "/>
		</marker>
		<marker id="mrkr14-117" class="st13" refX="-10.56" orient="auto" markerUnits="strokeWidth" overflow="visible">
			<use xlink:href="#lend14" transform="scale(-3.52,-3.52) "/>
		</marker>
		<marker id="mrkr12-152" class="st13" orient="auto" markerUnits="strokeWidth" overflow="visible">
			<use xlink:href="#lend12" transform="scale(-3.52,-3.52) "/>
		</marker>
	</defs>
	<g>
		<title>Page-1</title>
		<g id="group10-1" transform="translate(18,-772.478)">
			<title>Interface</title>
			<desc>Storage</desc>
			<g id="shape11-2">
				<title>Sheet.11</title>
				<path d="M0 841.89 L184.25 841.89 L184.25 833.39 L0 833.39 L0 841.89 Z" class="st1"/>
			</g>
			<g id="shape12-4" transform="translate(0,-8.50394)">
				<title>Sheet.12</title>
				<path d="M0 841.89 L184.25 841.89 L184.25 798.98 L0 798.98 L0 841.89 Z" class="st1"/>
			</g>
			<g id="shape13-6" transform="translate(0,-35.4076)">
				<title>Sheet.13</title>
				<desc>&#60;&#60;Interface&#62;&#62;</desc>
				<text x="4" y="838.89" class="st2">&#60;&#60;Interface&#62;&#62;</text>			</g>
			<g id="shape14-8" transform="translate(175.748,-51.4113)">
				<title>Sheet.14</title>
				<desc>parameter</desc>
			</g>
			<g id="shape10-9">
				<text x="4" y="821.28" class="st3">Storage</text>			</g>
		</g>
		<g id="shape16-11" transform="translate(20.8346,-775.313)">
			<title>Separator</title>
			<path d="M0 840.47 L178.58 840.47 L0 840.47 Z" class="st4"/>
			<path d="M0 840.47 L178.58 840.47" class="st5"/>
		</g>
		<g id="group18-14" transform="translate(18,-703.779)">
			<title>Class</title>
			<desc>StorageManager</desc>
			<g id="shape19-15">
				<title>Sheet.19</title>
				<path d="M0 841.89 L184.25 841.89 L184.25 833.39 L0 833.39 L0 841.89 Z" class="st6"/>
			</g>
			<g id="shape20-17" transform="translate(0,-8.50394)">
				<title>Sheet.20</title>
				<path d="M0 841.89 L184.25 841.89 L184.25 810.49 L0 810.49 L0 841.89 Z" class="st6"/>
			</g>
			<g id="shape22-19" transform="translate(175.748,-39.9076)">
				<title>Sheet.22</title>
				<desc>parameter</desc>
			</g>
			<g id="shape18-20">
				<text x="4" y="821.28" class="st7">StorageManager</text>			</g>
		</g>
		<g id="shape24-22" transform="translate(20.8346,-706.614)">
			<title>Separator.24</title>
			<path d="M0 840.47 L178.58 840.47 L0 840.47 Z" class="st4"/>
			<path d="M0 840.47 L178.58 840.47" class="st5"/>
		</g>
		<g id="group46-25" transform="translate(103.039,-743.687)">
			<title>Interface Realization</title>
			<g id="shape46-26">
				<path d="M7.09 841.89 L7.09 823.66" class="st8"/>
			</g>
		</g>
		<g id="group56-32" transform="translate(18.25,-615.295)">
			<title>Interface.56</title>
			<desc>FixedStorage</desc>
			<g id="shape57-33">
				<title>Sheet.57</title>
				<path d="M0 841.89 L184.25 841.89 L184.25 833.39 L0 833.39 L0 841.89 Z" class="st1"/>
			</g>
			<g id="shape58-35" transform="translate(0,-8.50394)">
				<title>Sheet.58</title>
				<path d="M0 841.89 L184.25 841.89 L184.25 798.98 L0 798.98 L0 841.89 Z" class="st1"/>
			</g>
			<g id="shape59-37" transform="translate(0,-35.4076)">
				<title>Sheet.59</title>
				<desc>&#60;&#60;Interface&#62;&#62;</desc>
				<text x="4" y="838.89" class="st2">&#60;&#60;Interface&#62;&#62;</text>			</g>
			<g id="shape60-39" transform="translate(175.748,-51.4113)">
				<title>Sheet.60</title>
				<desc>parameter</desc>
			</g>
			<g id="shape56-40">
				<text x="4" y="821.28" class="st3">FixedStorage</text>			</g>
		</g>
		<g id="group73-42" transform="translate(18.25,-541.149)">
			<title>Class.73</title>
			<desc>JsonUserPrefsStorage</desc>
			<g id="shape74-43">
				<title>Sheet.74</title>
				<path d="M0 841.89 L184.25 841.89 L184.25 833.39 L0 833.39 L0 841.89 Z" class="st6"/>
			</g>
			<g id="shape75-45" transform="translate(0,-8.50394)">
				<title>Sheet.75</title>
				<path d="M0 841.89 L184.25 841.89 L184.25 810.49 L0 810.49 L0 841.89 Z" class="st6"/>
			</g>
			<g id="shape77-47" transform="translate(175.748,-39.9076)">
				<title>Sheet.77</title>
				<desc>parameter</desc>
			</g>
			<g id="shape73-48">
				<text x="4" y="821.28" class="st7">JsonUserPrefsStorage</text>			</g>
		</g>
		<g id="shape78-50" transform="translate(21.0846,-543.984)">
			<title>Separator.78</title>
			<path d="M0 840.47 L178.58 840.47 L0 840.47 Z" class="st4"/>
			<path d="M0 840.47 L178.58 840.47" class="st5"/>
		</g>
		<g id="group84-53" transform="translate(103.289,-581.057)">
			<title>Interface Realization.84</title>
			<g id="shape84-54">
				<path d="M7.09 841.89 L7.09 818.21" class="st8"/>
			</g>
		</g>
		<g id="group89-59" transform="translate(103.164,-703.779)">
			<title>Aggregation</title>
			<g id="shape89-60">
				<path d="M6.96 857.37 L6.96 857.73 L6.96 876.31 L7.21 876.31 L7.21 878.96" class="st10"/>
			</g>
		</g>
		<g id="group134-66" transform="translate(269.291,-371.906)">
			<title>Class.134</title>
			<desc>XmlSerializableTodoList</desc>
			<g id="shape135-67">
				<title>Sheet.135</title>
				<path d="M0 841.89 L184.25 841.89 L184.25 833.39 L0 833.39 L0 841.89 Z" class="st6"/>
			</g>
			<g id="shape136-69" transform="translate(0,-8.50394)">
				<title>Sheet.136</title>
				<path d="M0 841.89 L184.25 841.89 L184.25 810.49 L0 810.49 L0 841.89 Z" class="st6"/>
			</g>
			<g id="shape138-71" transform="translate(175.748,-39.9076)">
				<title>Sheet.138</title>
				<desc>parameter</desc>
			</g>
			<g id="shape134-72">
				<text x="4" y="821.28" class="st7">XmlSerializableTodoList</text>			</g>
		</g>
		<g id="shape139-74" transform="translate(272.126,-374.74)">
			<title>Separator.139</title>
			<path d="M0 840.47 L178.58 840.47 L0 840.47 Z" class="st4"/>
			<path d="M0 840.47 L178.58 840.47" class="st5"/>
		</g>
		<g id="group145-77" transform="translate(269.291,-305.291)">
			<title>Class.145</title>
			<desc>XmlAdaptedTask</desc>
			<g id="shape146-78">
				<title>Sheet.146</title>
				<path d="M0 841.89 L184.25 841.89 L184.25 833.39 L0 833.39 L0 841.89 Z" class="st6"/>
			</g>
			<g id="shape147-80" transform="translate(0,-8.50394)">
				<title>Sheet.147</title>
				<path d="M0 841.89 L184.25 841.89 L184.25 810.49 L0 810.49 L0 841.89 Z" class="st6"/>
			</g>
			<g id="shape149-82" transform="translate(175.748,-39.9076)">
				<title>Sheet.149</title>
				<desc>parameter</desc>
			</g>
			<g id="shape145-83">
				<text x="4" y="821.28" class="st7">XmlAdaptedTask</text>			</g>
		</g>
		<g id="group151-85" transform="translate(354.331,-371.906)">
			<title>Dependency.151</title>
			<g id="shape151-86">
				<path d="M7.09 841.89 L7.09 868.6" class="st11"/>
			</g>
		</g>
		<g id="group162-92" transform="translate(202.252,-318.159)">
			<title>Dependency.162</title>
			<g id="shape162-93">
				<path d="M0 834.8 L67.04 834.8" class="st11"/>
			</g>
		</g>
		<g id="group167-98" transform="translate(269.291,-615.295)">
			<title>Interface.167</title>
			<desc>MovableStorage</desc>
			<g id="shape168-99">
				<title>Sheet.168</title>
				<path d="M0 841.89 L184.25 841.89 L184.25 833.39 L0 833.39 L0 841.89 Z" class="st1"/>
			</g>
			<g id="shape169-101" transform="translate(0,-8.50394)">
				<title>Sheet.169</title>
				<path d="M0 841.89 L184.25 841.89 L184.25 798.98 L0 798.98 L0 841.89 Z" class="st1"/>
			</g>
			<g id="shape170-103" transform="translate(0,-35.4076)">
				<title>Sheet.170</title>
				<desc>&#60;&#60;Interface&#62;&#62;</desc>
				<text x="4" y="838.89" class="st2">&#60;&#60;Interface&#62;&#62;</text>			</g>
			<g id="shape171-105" transform="translate(175.748,-51.4113)">
				<title>Sheet.171</title>
				<desc>parameter</desc>
			</g>
			<g id="shape167-106">
				<text x="4" y="821.28" class="st3">MovableStorage</text>			</g>
		</g>
		<g id="shape172-108" transform="translate(272.126,-618.13)">
			<title>Separator.172</title>
			<path d="M0 840.47 L178.58 840.47 L0 840.47 Z" class="st4"/>
			<path d="M0 840.47 L178.58 840.47" class="st5"/>
		</g>
		<g id="group180-111" transform="translate(269.291,-633.914)">
			<title>Inheritance</title>
			<g id="shape180-112">
				<path d="M0 834.8 L-56.23 834.8" class="st12"/>
			</g>
		</g>
		<g id="group185-118" transform="translate(18,-305.291)">
			<title>Class.185</title>
			<desc>XmlAdaptedTag</desc>
			<g id="shape186-119">
				<title>Sheet.186</title>
				<path d="M0 841.89 L184.25 841.89 L184.25 833.39 L0 833.39 L0 841.89 Z" class="st6"/>
			</g>
			<g id="shape187-121" transform="translate(0,-8.50394)">
				<title>Sheet.187</title>
				<path d="M0 841.89 L184.25 841.89 L184.25 810.49 L0 810.49 L0 841.89 Z" class="st6"/>
			</g>
			<g id="shape189-123" transform="translate(175.748,-39.9076)">
				<title>Sheet.189</title>
				<desc>parameter</desc>
			</g>
			<g id="shape185-124">
				<text x="4" y="821.28" class="st7">XmlAdaptedTag</text>			</g>
		</g>
		<g id="group190-126" transform="translate(269.291,-541.149)">
			<title>Class.190</title>
			<desc>TodoListStorage</desc>
			<g id="shape191-127">
				<title>Sheet.191</title>
				<path d="M0 841.89 L184.25 841.89 L184.25 833.39 L0 833.39 L0 841.89 Z" class="st6"/>
			</g>
			<g id="shape192-129" transform="translate(0,-8.50394)">
				<title>Sheet.192</title>
				<path d="M0 841.89 L184.25 841.89 L184.25 810.49 L0 810.49 L0 841.89 Z" class="st6"/>
			</g>
			<g id="shape194-131" transform="translate(175.748,-39.9076)">
				<title>Sheet.194</title>
				<desc>parameter</desc>
			</g>
			<g id="shape190-132">
				<text x="4" y="821.28" class="st7">TodoListStorage</text>			</g>
		</g>
		<g id="shape195-134" transform="translate(272.126,-543.984)">
			<title>Separator.195</title>
			<path d="M0 840.47 L178.58 840.47 L0 840.47 Z" class="st4"/>
			<path d="M0 840.47 L178.58 840.47" class="st5"/>
		</g>
		<g id="group196-137" transform="translate(354.331,-581.057)">
			<title>Interface Realization.196</title>
			<g id="shape196-138">
				<path d="M7.09 841.89 L7.09 818.21" class="st14"/>
			</g>
		</g>
		<g id="shape226-143" transform="translate(53.6831,-432.665)">
			<title>Package (collapsed)</title>
			<desc>Model</desc>
			<rect x="0" y="807.874" width="113.386" height="34.0157" class="st15"/>
			<text x="39.67" y="828.48" class="st7">Model</text>		</g>
		<g id="group227-146" transform="translate(103.289,-541.149)">
			<title>Directed Association</title>
			<g id="shape227-147">
				<path d="M7.09 841.89 L7.09 916.36" class="st16"/>
			</g>
		</g>
		<g id="group232-153" transform="translate(361.417,-541.149)">
			<title>Directed Association.232</title>
			<g id="shape232-154">
				<path d="M0 841.89 L0 879.32 L-251.04 879.32 L-251.04 916.36" class="st16"/>
			</g>
		</g>
		<g id="group237-159" transform="translate(103.164,-345.199)">
			<title>Directed Association.237</title>
			<g id="shape237-160">
				<path d="M6.96 841.89 L6.96 765.05 L7.21 765.05 L7.21 754.42" class="st16"/>
			</g>
		</g>
		<g id="group242-165" transform="translate(269.291,-391.859)">
			<title>Directed Association.242</title>
			<g id="shape242-166">
				<path d="M0 841.89 L-158.92 841.89 L-158.92 802.4" class="st16"/>
			</g>
		</g>
	</g>
</svg>
