<?xml version="1.0" encoding="UTF-8" standalone="no"?>
<!DOCTYPE svg PUBLIC "-//W3C//DTD SVG 1.1//EN" "http://www.w3.org/Graphics/SVG/1.1/DTD/svg11.dtd">
<!-- Generated by Microsoft Visio, SVG Export Ui Component 1.svg Page-1 -->
<svg xmlns="http://www.w3.org/2000/svg" xmlns:xlink="http://www.w3.org/1999/xlink" xmlns:ev="http://www.w3.org/2001/xml-events"
		width="11.6929in" height="8.26772in" viewBox="0 0 841.89 595.276" xml:space="preserve" color-interpolation-filters="sRGB"
		class="st14">
	<style type="text/css">
	<![CDATA[
		.st1 {stroke:#1ba1e2;stroke-linecap:round;stroke-linejoin:round;stroke-width:1}
		.st2 {fill:#f2f2f2;stroke:#ffffff;stroke-linecap:round;stroke-linejoin:round;stroke-width:0.5}
		.st3 {fill:#1ba1e2;stroke:#ffffff;stroke-linecap:round;stroke-linejoin:round;stroke-width:0.5}
		.st4 {fill:#ffffff;font-family:Source Code Pro;font-size:0.833336em}
		.st5 {fill:#ffffff;font-family:Source Code Pro;font-size:1.00001em}
		.st6 {fill:#1ba1e2}
		.st7 {stroke:#1ba1e2;stroke-dasharray:2,1;stroke-linecap:butt;stroke-width:1}
		.st8 {marker-end:url(#mrkr14-40);stroke:#1ba1e2;stroke-dasharray:7,5;stroke-linecap:round;stroke-linejoin:round;stroke-width:1}
		.st9 {fill:#1ba1e2;fill-opacity:1;stroke:#1ba1e2;stroke-opacity:1;stroke-width:0.28409090909091}
		.st10 {marker-end:url(#mrkr12-126);stroke:#1ba1e2;stroke-dasharray:7,5;stroke-linecap:round;stroke-linejoin:round;stroke-width:1}
		.st11 {fill:#d80073;stroke:#ffffff;stroke-linecap:round;stroke-linejoin:round;stroke-width:0.5}
		.st12 {marker-end:url(#mrkr12-126);stroke:#1ba1e2;stroke-linecap:round;stroke-linejoin:round;stroke-width:1}
		.st13 {marker-end:url(#mrkr14-40);stroke:#1ba1e2;stroke-linecap:round;stroke-linejoin:round;stroke-width:1}
		.st14 {fill:none;fill-rule:evenodd;font-size:12px;overflow:visible;stroke-linecap:square;stroke-miterlimit:3}
	]]>
	</style>

	<defs id="Markers">
		<g id="lend14">
			<path d="M 3 -1 L 0 0 L 3 1 L 3 -1 " style="stroke-linecap:round;stroke-linejoin:round;fill:none"/>
		</g>
		<marker id="mrkr14-40" class="st9" refX="-10.56" orient="auto" markerUnits="strokeWidth" overflow="visible">
			<use xlink:href="#lend14" transform="scale(-3.52,-3.52) "/>
		</marker>
		<g id="lend12">
			<path d="M 3 1 L 0 0 L 3 -1 " style="stroke-linecap:round;stroke-linejoin:round;fill:none"/>
		</g>
		<marker id="mrkr12-126" class="st9" orient="auto" markerUnits="strokeWidth" overflow="visible">
			<use xlink:href="#lend12" transform="scale(-3.52,-3.52) "/>
		</marker>
	</defs>
	<g>
		<title>Page-1</title>
		<g id="shape81-1" transform="translate(1136.2,179.156) rotate(90)">
			<title>Multi-tree square</title>
			<path d="M0 595.28 L17.49 595.28" class="st1"/>
			<path d="M17.49 595.28 L17.49 549.85 L94.08 549.85" class="st1"/>
			<path d="M17.49 595.28 L17.49 783.28 L94.08 783.28" class="st1"/>
			<path d="M17.49 595.28 L17.49 436.46 L37.44 436.46" class="st1"/>
			<path d="M17.49 595.28 L17.49 668.48 L37.44 668.48" class="st1"/>
			<path d="M17.49 595.28 L17.49 896.67 L37.44 896.67" class="st1"/>
			<path d="M17.49 595.28 L17.49 1015.72 L169.39 1015.72" class="st1"/>
		</g>
		<g id="group1-10" transform="translate(182.409,-497.676)">
			<title>Interface</title>
			<desc>Ui</desc>
			<g id="shape2-11">
				<title>Sheet.2</title>
				<path d="M0 595.28 L184.25 595.28 L184.25 586.77 L0 586.77 L0 595.28 Z" class="st2"/>
			</g>
			<g id="shape3-13" transform="translate(0,-8.50394)">
				<title>Sheet.3</title>
				<path d="M0 595.28 L184.25 595.28 L184.25 552.37 L0 552.37 L0 595.28 Z" class="st3"/>
			</g>
			<g id="shape4-15" transform="translate(0,-35.4076)">
				<title>Sheet.4</title>
				<desc>&#60;&#60;Interface&#62;&#62;</desc>
				<text x="4" y="592.27" class="st4">&#60;&#60;Interface&#62;&#62;</text>			</g>
			<g id="shape5-17" transform="translate(175.748,-51.4113)">
				<title>Sheet.5</title>
				<desc>parameter</desc>
			</g>
			<g id="shape1-18">
				<text x="4" y="574.67" class="st5">Ui</text>			</g>
		</g>
		<g id="shape7-20" transform="translate(185.244,-500.511)">
			<title>Separator</title>
			<path d="M0 593.86 L178.58 593.86 L0 593.86 Z" class="st6"/>
			<path d="M0 593.86 L178.58 593.86" class="st7"/>
		</g>
		<g id="group9-23" transform="translate(182.409,-435.285)">
			<title>Class</title>
			<desc>UiManager</desc>
			<g id="shape10-24">
				<title>Sheet.10</title>
				<path d="M0 595.28 L184.25 595.28 L184.25 586.77 L0 586.77 L0 595.28 Z" class="st2"/>
			</g>
			<g id="shape11-26" transform="translate(0,-8.50394)">
				<title>Sheet.11</title>
				<path d="M0 595.28 L184.25 595.28 L184.25 563.87 L0 563.87 L0 595.28 Z" class="st3"/>
			</g>
			<g id="shape13-28" transform="translate(175.748,-39.9076)">
				<title>Sheet.13</title>
				<desc>parameter</desc>
			</g>
			<g id="shape9-29">
				<text x="4" y="574.67" class="st5">UiManager</text>			</g>
		</g>
		<g id="shape15-31" transform="translate(185.244,-438.12)">
			<title>Separator.15</title>
			<path d="M0 593.86 L178.58 593.86 L0 593.86 Z" class="st6"/>
			<path d="M0 593.86 L178.58 593.86" class="st7"/>
		</g>
		<g id="group22-34" transform="translate(267.449,-475.193)">
			<title>Interface Realization</title>
			<g id="shape22-35">
				<path d="M7.09 595.28 L7.09 583.35" class="st8"/>
			</g>
		</g>
		<g id="group27-41" transform="translate(449.291,-429.533)">
			<title>Interface.27</title>
			<desc>UiPart</desc>
			<g id="shape28-42">
				<title>Sheet.28</title>
				<path d="M0 595.28 L184.25 595.28 L184.25 586.77 L0 586.77 L0 595.28 Z" class="st2"/>
			</g>
			<g id="shape29-44" transform="translate(0,-8.50394)">
				<title>Sheet.29</title>
				<path d="M0 595.28 L184.25 595.28 L184.25 552.37 L0 552.37 L0 595.28 Z" class="st3"/>
			</g>
			<g id="shape30-46" transform="translate(0,-35.4076)">
				<title>Sheet.30</title>
				<desc>{Abstract}</desc>
				<text x="4" y="592.27" class="st4">{Abstract}</text>			</g>
			<g id="shape31-48" transform="translate(175.748,-51.4113)">
				<title>Sheet.31</title>
				<desc>parameter</desc>
			</g>
			<g id="shape27-49">
				<text x="4" y="574.67" class="st5">UiPart</text>			</g>
		</g>
		<g id="shape32-51" transform="translate(452.126,-432.368)">
			<title>Separator.32</title>
			<path d="M0 593.86 L178.58 593.86 L0 593.86 Z" class="st6"/>
			<path d="M0 593.86 L178.58 593.86" class="st7"/>
		</g>
		<g id="group33-54" transform="translate(449.291,-509.18)">
			<title>Class.33</title>
			<desc>UiPartLoader</desc>
			<g id="shape34-55">
				<title>Sheet.34</title>
				<path d="M0 595.28 L184.25 595.28 L184.25 586.77 L0 586.77 L0 595.28 Z" class="st2"/>
			</g>
			<g id="shape35-57" transform="translate(0,-8.50394)">
				<title>Sheet.35</title>
				<path d="M0 595.28 L184.25 595.28 L184.25 563.87 L0 563.87 L0 595.28 Z" class="st3"/>
			</g>
			<g id="shape37-59" transform="translate(175.748,-39.9076)">
				<title>Sheet.37</title>
				<desc>parameter</desc>
			</g>
			<g id="shape33-60">
				<text x="4" y="574.67" class="st5">UiPartLoader</text>			</g>
		</g>
		<g id="shape38-62" transform="translate(452.126,-512.014)">
			<title>Separator.38</title>
			<path d="M0 593.86 L178.58 593.86 L0 593.86 Z" class="st6"/>
			<path d="M0 593.86 L178.58 593.86" class="st7"/>
		</g>
		<g id="group39-65" transform="translate(28.3465,-206.818)">
			<title>Class.39</title>
			<desc>MainWindow</desc>
			<g id="shape40-66">
				<title>Sheet.40</title>
				<path d="M0 595.28 L184.25 595.28 L184.25 586.77 L0 586.77 L0 595.28 Z" class="st2"/>
			</g>
			<g id="shape41-68" transform="translate(0,-8.50394)">
				<title>Sheet.41</title>
				<path d="M0 595.28 L184.25 595.28 L184.25 563.87 L0 563.87 L0 595.28 Z" class="st3"/>
			</g>
			<g id="shape43-70" transform="translate(175.748,-39.9076)">
				<title>Sheet.43</title>
				<desc>parameter</desc>
			</g>
			<g id="shape39-71">
				<text x="4" y="574.67" class="st5">MainWindow</text>			</g>
		</g>
		<g id="shape44-73" transform="translate(31.1811,-209.652)">
			<title>Separator.44</title>
			<path d="M0 593.86 L178.58 593.86 L0 593.86 Z" class="st6"/>
			<path d="M0 593.86 L178.58 593.86" class="st7"/>
		</g>
		<g id="group45-76" transform="translate(375.591,-338.769)">
			<title>Class.45</title>
			<desc>CommandXView</desc>
			<g id="shape46-77">
				<title>Sheet.46</title>
				<path d="M0 595.28 L184.25 595.28 L184.25 586.77 L0 586.77 L0 595.28 Z" class="st2"/>
			</g>
			<g id="shape47-79" transform="translate(0,-8.50394)">
				<title>Sheet.47</title>
				<path d="M0 595.28 L184.25 595.28 L184.25 563.87 L0 563.87 L0 595.28 Z" class="st3"/>
			</g>
			<g id="shape49-81" transform="translate(175.748,-39.9076)">
				<title>Sheet.49</title>
				<desc>parameter</desc>
			</g>
			<g id="shape45-82">
				<text x="4" y="574.67" class="st5">CommandXView</text>			</g>
		</g>
		<g id="shape50-84" transform="translate(378.425,-341.604)">
			<title>Separator.50</title>
			<path d="M0 593.86 L178.58 593.86 L0 593.86 Z" class="st6"/>
			<path d="M0 593.86 L178.58 593.86" class="st7"/>
		</g>
		<g id="group63-87" transform="translate(147.402,-338.769)">
			<title>Class.63</title>
			<desc>HelpView</desc>
			<g id="shape64-88">
				<title>Sheet.64</title>
				<path d="M0 595.28 L184.25 595.28 L184.25 586.77 L0 586.77 L0 595.28 Z" class="st2"/>
			</g>
			<g id="shape65-90" transform="translate(0,-8.50394)">
				<title>Sheet.65</title>
				<path d="M0 595.28 L184.25 595.28 L184.25 563.87 L0 563.87 L0 595.28 Z" class="st3"/>
			</g>
			<g id="shape67-92" transform="translate(175.748,-39.9076)">
				<title>Sheet.67</title>
				<desc>parameter</desc>
			</g>
			<g id="shape63-93">
				<text x="4" y="574.67" class="st5">HelpView</text>			</g>
		</g>
		<g id="shape68-95" transform="translate(150.236,-341.604)">
			<title>Separator.68</title>
			<path d="M0 593.86 L178.58 593.86 L0 593.86 Z" class="st6"/>
			<path d="M0 593.86 L178.58 593.86" class="st7"/>
		</g>
		<g id="group69-98" transform="translate(607.606,-338.769)">
			<title>Class.69</title>
			<desc>TaskCard</desc>
			<g id="shape70-99">
				<title>Sheet.70</title>
				<path d="M0 595.28 L184.25 595.28 L184.25 586.77 L0 586.77 L0 595.28 Z" class="st2"/>
			</g>
			<g id="shape71-101" transform="translate(0,-8.50394)">
				<title>Sheet.71</title>
				<path d="M0 595.28 L184.25 595.28 L184.25 563.87 L0 563.87 L0 595.28 Z" class="st3"/>
			</g>
			<g id="shape73-103" transform="translate(175.748,-39.9076)">
				<title>Sheet.73</title>
				<desc>parameter</desc>
			</g>
			<g id="shape69-104">
				<text x="4" y="574.67" class="st5">TaskCard</text>			</g>
		</g>
		<g id="shape74-106" transform="translate(610.441,-341.604)">
			<title>Separator.74</title>
			<path d="M0 593.86 L178.58 593.86 L0 593.86 Z" class="st6"/>
			<path d="M0 593.86 L178.58 593.86" class="st7"/>
		</g>
		<g id="group75-109" transform="translate(494.22,-282.132)">
			<title>Class.75</title>
			<desc>TodoListView</desc>
			<g id="shape76-110">
				<title>Sheet.76</title>
				<path d="M0 595.28 L184.25 595.28 L184.25 586.77 L0 586.77 L0 595.28 Z" class="st2"/>
			</g>
			<g id="shape77-112" transform="translate(0,-8.50394)">
				<title>Sheet.77</title>
				<path d="M0 595.28 L184.25 595.28 L184.25 563.87 L0 563.87 L0 595.28 Z" class="st3"/>
			</g>
			<g id="shape79-114" transform="translate(175.748,-39.9076)">
				<title>Sheet.79</title>
				<desc>parameter</desc>
			</g>
			<g id="shape75-115">
				<text x="4" y="574.67" class="st5">TodoListView</text>			</g>
		</g>
		<g id="shape80-117" transform="translate(497.055,-284.966)">
			<title>Separator.80</title>
			<path d="M0 593.86 L178.58 593.86 L0 593.86 Z" class="st6"/>
			<path d="M0 593.86 L178.58 593.86" class="st7"/>
		</g>
		<g id="group94-120" transform="translate(534.331,-509.18)">
			<title>Dependency</title>
			<g id="shape94-121">
				<path d="M7.09 595.28 L7.09 623.51" class="st10"/>
			</g>
		</g>
		<g id="group101-127" transform="translate(375.591,-159.574)">
			<title>Class.101</title>
			<desc>CommandController</desc>
			<g id="shape102-128">
				<title>Sheet.102</title>
				<path d="M0 595.28 L184.25 595.28 L184.25 586.77 L0 586.77 L0 595.28 Z" class="st2"/>
			</g>
			<g id="shape103-130" transform="translate(0,-8.50394)">
				<title>Sheet.103</title>
				<path d="M0 595.28 L184.25 595.28 L184.25 563.87 L0 563.87 L0 595.28 Z" class="st3"/>
			</g>
			<g id="shape105-132" transform="translate(175.748,-39.9076)">
				<title>Sheet.105</title>
				<desc>parameter</desc>
			</g>
			<g id="shape101-133">
				<text x="4" y="574.67" class="st5">CommandController</text>			</g>
		</g>
		<g id="shape106-135" transform="translate(378.425,-162.409)">
			<title>Separator.106</title>
			<path d="M0 593.86 L178.58 593.86 L0 593.86 Z" class="st6"/>
			<path d="M0 593.86 L178.58 593.86" class="st7"/>
		</g>
		<g id="shape107-138" transform="translate(203.669,-99.2126)">
			<title>Package (collapsed)</title>
			<desc>Logic</desc>
			<rect x="0" y="561.26" width="113.386" height="34.0157" class="st11"/>
			<text x="38.69" y="581.87" class="st5">Logic</text>		</g>
		<g id="group113-141" transform="translate(467.717,-159.574)">
			<title>Directed Association.113</title>
			<g id="shape113-142">
				<path d="M0 595.28 L0 638.63 L-150.66 638.63" class="st12"/>
			</g>
		</g>
		<g id="group146-147" transform="translate(534.083,-415.74)">
			<title>Inheritance.146</title>
			<g id="shape146-148">
				<path d="M6.84 594.9 L7.33 594.9 L7.33 592.04" class="st13"/>
			</g>
		</g>
		<g id="shape151-153" transform="translate(643.039,-212.71)">
			<title>Package (collapsed).151</title>
			<desc>Model</desc>
			<rect x="0" y="561.26" width="113.386" height="34.0157" class="st11"/>
			<text x="38.69" y="581.87" class="st5">Model</text>		</g>
		<g id="group187-156" transform="translate(260.787,-282.132)">
			<title>Class.187</title>
			<desc>FilterBarView</desc>
			<g id="shape188-157">
				<title>Sheet.188</title>
				<path d="M0 595.28 L184.25 595.28 L184.25 586.77 L0 586.77 L0 595.28 Z" class="st2"/>
			</g>
			<g id="shape189-159" transform="translate(0,-8.50394)">
				<title>Sheet.189</title>
				<path d="M0 595.28 L184.25 595.28 L184.25 563.87 L0 563.87 L0 595.28 Z" class="st3"/>
			</g>
			<g id="shape191-161" transform="translate(175.748,-39.9076)">
				<title>Sheet.191</title>
				<desc>parameter</desc>
			</g>
			<g id="shape187-162">
				<text x="4" y="574.67" class="st5">FilterBarView</text>			</g>
		</g>
		<g id="shape192-164" transform="translate(263.622,-284.966)">
			<title>Separator.192</title>
			<path d="M0 593.86 L178.58 593.86 L0 593.86 Z" class="st6"/>
			<path d="M0 593.86 L178.58 593.86" class="st7"/>
		</g>
		<g id="group193-167" transform="translate(120.472,-206.818)">
			<title>Directed Association</title>
			<g id="shape193-168">
				<path d="M0 595.28 L0 685.87 L83.2 685.87" class="st12"/>
			</g>
		</g>
		<g id="group208-173" transform="translate(692.646,-338.769)">
			<title>Directed Association.208</title>
			<g id="shape208-174">
				<path d="M7.09 595.28 L7.09 636.41 L7.09 687.32" class="st12"/>
			</g>
		</g>
		<g id="group213-179" transform="translate(586.346,-282.132)">
			<title>Directed Association.213</title>
			<g id="shape213-180">
				<path d="M0 595.28 L0 647.69 L56.69 647.69" class="st12"/>
			</g>
		</g>
		<g id="group219-185" transform="translate(239.528,-338.769)">
			<title>Directed Association.219</title>
			<g id="shape219-186">
				<path d="M0 595.28 L0 707.27 L-26.93 707.27" class="st12"/>
			</g>
		</g>
		<g id="group224-191" transform="translate(352.913,-282.132)">
			<title>Directed Association.224</title>
			<g id="shape224-192">
				<path d="M0 595.28 L0 650.64 L-140.31 650.64" class="st12"/>
			</g>
		</g>
		<g id="group229-197" transform="translate(422.362,-338.769)">
			<title>Directed Association.229</title>
			<g id="shape229-198">
				<path d="M0 595.28 L0 707.27 L-209.76 707.27" class="st12"/>
			</g>
		</g>
		<g id="group234-203" transform="translate(460.63,-199.482)">
			<title>Directed Association.234</title>
			<g id="shape234-204">
				<path d="M7.09 595.28 L7.09 455.99" class="st12"/>
			</g>
		</g>
		<g id="group239-209" transform="translate(552.331,-282.132)">
			<title>Directed Association.239</title>
			<g id="shape239-210">
				<path d="M0 595.28 L0 650.64 L-82.25 650.64 A2.3622 2.3622 -180 1 0 -86.98 650.64 L-339.73 650.64" class="st12"/>
			</g>
		</g>
		<g id="group249-215" transform="translate(182.409,-455.239)">
			<title>Directed Association.249</title>
			<g id="shape249-216">
				<path d="M0 595.28 L-117.21 595.28 L-117.21 803.79" class="st12"/>
			</g>
		</g>
	</g>
</svg>
