<?xml version="1.0" encoding="UTF-8" standalone="no"?>
<!DOCTYPE svg PUBLIC "-//W3C//DTD SVG 1.1//EN" "http://www.w3.org/Graphics/SVG/1.1/DTD/svg11.dtd">
<!-- Generated by Microsoft Visio, SVG Export Ui Component.svg Page-1 -->
<svg xmlns="http://www.w3.org/2000/svg" xmlns:xlink="http://www.w3.org/1999/xlink" xmlns:ev="http://www.w3.org/2001/xml-events"
		width="11.1113in" height="6.7552in" viewBox="0 0 800.012 486.375" xml:space="preserve" color-interpolation-filters="sRGB"
		class="st14">
	<style type="text/css">
	<![CDATA[
		.st1 {stroke:#1ba1e2;stroke-linecap:round;stroke-linejoin:round;stroke-width:1}
		.st2 {fill:#f2f2f2;stroke:#ffffff;stroke-linecap:round;stroke-linejoin:round;stroke-width:0.5}
		.st3 {fill:#1ba1e2;stroke:#ffffff;stroke-linecap:round;stroke-linejoin:round;stroke-width:0.5}
		.st4 {fill:#ffffff;font-family:Source Code Pro;font-size:0.833336em}
		.st5 {fill:#ffffff;font-family:Source Code Pro;font-size:1.00001em}
		.st6 {fill:#1ba1e2}
		.st7 {stroke:#1ba1e2;stroke-dasharray:2,1;stroke-linecap:butt;stroke-width:1}
		.st8 {marker-end:url(#mrkr14-40);stroke:#1ba1e2;stroke-dasharray:7,5;stroke-linecap:round;stroke-linejoin:round;stroke-width:1}
		.st9 {fill:#1ba1e2;fill-opacity:1;stroke:#1ba1e2;stroke-opacity:1;stroke-width:0.28409090909091}
		.st10 {marker-end:url(#mrkr12-126);stroke:#1ba1e2;stroke-dasharray:7,5;stroke-linecap:round;stroke-linejoin:round;stroke-width:1}
		.st11 {fill:#d80073;stroke:#ffffff;stroke-linecap:round;stroke-linejoin:round;stroke-width:0.5}
		.st12 {marker-end:url(#mrkr12-126);stroke:#1ba1e2;stroke-linecap:round;stroke-linejoin:round;stroke-width:1}
		.st13 {marker-end:url(#mrkr14-40);stroke:#1ba1e2;stroke-linecap:round;stroke-linejoin:round;stroke-width:1}
		.st14 {fill:none;fill-rule:evenodd;font-size:12px;overflow:visible;stroke-linecap:square;stroke-miterlimit:3}
	]]>
	</style>

	<defs id="Markers">
		<g id="lend14">
			<path d="M 3 -1 L 0 0 L 3 1 L 3 -1 " style="stroke-linecap:round;stroke-linejoin:round;fill:none"/>
		</g>
		<marker id="mrkr14-40" class="st9" refX="-10.56" orient="auto" markerUnits="strokeWidth" overflow="visible">
			<use xlink:href="#lend14" transform="scale(-3.52,-3.52) "/>
		</marker>
		<g id="lend12">
			<path d="M 3 1 L 0 0 L 3 -1 " style="stroke-linecap:round;stroke-linejoin:round;fill:none"/>
		</g>
		<marker id="mrkr12-126" class="st9" orient="auto" markerUnits="strokeWidth" overflow="visible">
			<use xlink:href="#lend12" transform="scale(-3.52,-3.52) "/>
		</marker>
	</defs>
	<g>
		<title>Page-1</title>
		<g id="shape81-1" transform="translate(1017.2,151.218) rotate(90)">
			<title>Multi-tree square</title>
			<path d="M0 486.37 L17.49 486.37" class="st1"/>
			<path d="M17.49 486.37 L17.49 440.95 L94.08 440.95" class="st1"/>
			<path d="M17.49 486.37 L17.49 674.38 L94.08 674.38" class="st1"/>
			<path d="M17.49 486.37 L17.49 327.56 L37.44 327.56" class="st1"/>
			<path d="M17.49 486.37 L17.49 559.58 L37.44 559.58" class="st1"/>
			<path d="M17.49 486.37 L17.49 787.77 L37.44 787.77" class="st1"/>
			<path d="M17.49 486.37 L17.49 906.82 L169.39 906.82" class="st1"/>
		</g>
		<g id="group1-10" transform="translate(172.313,-416.713)">
			<title>Interface</title>
			<desc>Ui</desc>
			<g id="shape2-11">
				<title>Sheet.2</title>
				<path d="M0 486.37 L184.25 486.37 L184.25 477.87 L0 477.87 L0 486.37 Z" class="st2"/>
			</g>
			<g id="shape3-13" transform="translate(0,-8.50394)">
				<title>Sheet.3</title>
				<path d="M0 486.37 L184.25 486.37 L184.25 443.47 L0 443.47 L0 486.37 Z" class="st3"/>
			</g>
			<g id="shape4-15" transform="translate(0,-35.4076)">
				<title>Sheet.4</title>
				<desc>&#60;&#60;Interface&#62;&#62;</desc>
				<text x="4" y="483.37" class="st4">&#60;&#60;Interface&#62;&#62;</text>			</g>
			<g id="shape5-17" transform="translate(175.748,-51.4113)">
				<title>Sheet.5</title>
				<desc>parameter</desc>
			</g>
			<g id="shape1-18">
				<text x="4" y="465.77" class="st5">Ui</text>			</g>
		</g>
		<g id="shape7-20" transform="translate(175.148,-419.548)">
			<title>Separator</title>
			<path d="M0 484.96 L178.58 484.96 L0 484.96 Z" class="st6"/>
			<path d="M0 484.96 L178.58 484.96" class="st7"/>
		</g>
		<g id="group9-23" transform="translate(172.313,-354.322)">
			<title>Class</title>
			<desc>UiManager</desc>
			<g id="shape10-24">
				<title>Sheet.10</title>
				<path d="M0 486.37 L184.25 486.37 L184.25 477.87 L0 477.87 L0 486.37 Z" class="st2"/>
			</g>
			<g id="shape11-26" transform="translate(0,-8.50394)">
				<title>Sheet.11</title>
				<path d="M0 486.37 L184.25 486.37 L184.25 454.97 L0 454.97 L0 486.37 Z" class="st3"/>
			</g>
			<g id="shape13-28" transform="translate(175.748,-39.9076)">
				<title>Sheet.13</title>
				<desc>parameter</desc>
			</g>
			<g id="shape9-29">
				<text x="4" y="465.77" class="st5">UiManager</text>			</g>
		</g>
		<g id="shape15-31" transform="translate(175.148,-357.157)">
			<title>Separator.15</title>
			<path d="M0 484.96 L178.58 484.96 L0 484.96 Z" class="st6"/>
			<path d="M0 484.96 L178.58 484.96" class="st7"/>
		</g>
		<g id="group22-34" transform="translate(257.352,-394.23)">
			<title>Interface Realization</title>
			<g id="shape22-35">
				<path d="M7.09 486.37 L7.09 474.45" class="st8"/>
			</g>
		</g>
		<g id="group27-41" transform="translate(439.195,-348.571)">
			<title>Interface.27</title>
			<desc>UiPart</desc>
			<g id="shape28-42">
				<title>Sheet.28</title>
				<path d="M0 486.37 L184.25 486.37 L184.25 477.87 L0 477.87 L0 486.37 Z" class="st2"/>
			</g>
			<g id="shape29-44" transform="translate(0,-8.50394)">
				<title>Sheet.29</title>
				<path d="M0 486.37 L184.25 486.37 L184.25 443.47 L0 443.47 L0 486.37 Z" class="st3"/>
			</g>
			<g id="shape30-46" transform="translate(0,-35.4076)">
				<title>Sheet.30</title>
				<desc>{Abstract}</desc>
				<text x="4" y="483.37" class="st4">{Abstract}</text>			</g>
			<g id="shape31-48" transform="translate(175.748,-51.4113)">
				<title>Sheet.31</title>
				<desc>parameter</desc>
			</g>
			<g id="shape27-49">
				<text x="4" y="465.77" class="st5">UiPart</text>			</g>
		</g>
		<g id="shape32-51" transform="translate(442.03,-351.405)">
			<title>Separator.32</title>
			<path d="M0 484.96 L178.58 484.96 L0 484.96 Z" class="st6"/>
			<path d="M0 484.96 L178.58 484.96" class="st7"/>
		</g>
		<g id="group33-54" transform="translate(439.195,-428.217)">
			<title>Class.33</title>
			<desc>UiPartLoader</desc>
			<g id="shape34-55">
				<title>Sheet.34</title>
				<path d="M0 486.37 L184.25 486.37 L184.25 477.87 L0 477.87 L0 486.37 Z" class="st2"/>
			</g>
			<g id="shape35-57" transform="translate(0,-8.50394)">
				<title>Sheet.35</title>
				<path d="M0 486.37 L184.25 486.37 L184.25 454.97 L0 454.97 L0 486.37 Z" class="st3"/>
			</g>
			<g id="shape37-59" transform="translate(175.748,-39.9076)">
				<title>Sheet.37</title>
				<desc>parameter</desc>
			</g>
			<g id="shape33-60">
				<text x="4" y="465.77" class="st5">UiPartLoader</text>			</g>
		</g>
		<g id="shape38-62" transform="translate(442.03,-431.052)">
			<title>Separator.38</title>
			<path d="M0 484.96 L178.58 484.96 L0 484.96 Z" class="st6"/>
			<path d="M0 484.96 L178.58 484.96" class="st7"/>
		</g>
		<g id="group39-65" transform="translate(18.25,-125.855)">
			<title>Class.39</title>
			<desc>MainWindow</desc>
			<g id="shape40-66">
				<title>Sheet.40</title>
				<path d="M0 486.37 L184.25 486.37 L184.25 477.87 L0 477.87 L0 486.37 Z" class="st2"/>
			</g>
			<g id="shape41-68" transform="translate(0,-8.50394)">
				<title>Sheet.41</title>
				<path d="M0 486.37 L184.25 486.37 L184.25 454.97 L0 454.97 L0 486.37 Z" class="st3"/>
			</g>
			<g id="shape43-70" transform="translate(175.748,-39.9076)">
				<title>Sheet.43</title>
				<desc>parameter</desc>
			</g>
			<g id="shape39-71">
				<text x="4" y="465.77" class="st5">MainWindow</text>			</g>
		</g>
		<g id="shape44-73" transform="translate(21.0846,-128.69)">
			<title>Separator.44</title>
			<path d="M0 484.96 L178.58 484.96 L0 484.96 Z" class="st6"/>
			<path d="M0 484.96 L178.58 484.96" class="st7"/>
		</g>
		<g id="group45-76" transform="translate(365.494,-257.806)">
			<title>Class.45</title>
			<desc>CommandXView</desc>
			<g id="shape46-77">
				<title>Sheet.46</title>
				<path d="M0 486.37 L184.25 486.37 L184.25 477.87 L0 477.87 L0 486.37 Z" class="st2"/>
			</g>
			<g id="shape47-79" transform="translate(0,-8.50394)">
				<title>Sheet.47</title>
				<path d="M0 486.37 L184.25 486.37 L184.25 454.97 L0 454.97 L0 486.37 Z" class="st3"/>
			</g>
			<g id="shape49-81" transform="translate(175.748,-39.9076)">
				<title>Sheet.49</title>
				<desc>parameter</desc>
			</g>
			<g id="shape45-82">
				<text x="4" y="465.77" class="st5">CommandXView</text>			</g>
		</g>
		<g id="shape50-84" transform="translate(368.329,-260.641)">
			<title>Separator.50</title>
			<path d="M0 484.96 L178.58 484.96 L0 484.96 Z" class="st6"/>
			<path d="M0 484.96 L178.58 484.96" class="st7"/>
		</g>
		<g id="group63-87" transform="translate(137.305,-257.806)">
			<title>Class.63</title>
			<desc>HelpView</desc>
			<g id="shape64-88">
				<title>Sheet.64</title>
				<path d="M0 486.37 L184.25 486.37 L184.25 477.87 L0 477.87 L0 486.37 Z" class="st2"/>
			</g>
			<g id="shape65-90" transform="translate(0,-8.50394)">
				<title>Sheet.65</title>
				<path d="M0 486.37 L184.25 486.37 L184.25 454.97 L0 454.97 L0 486.37 Z" class="st3"/>
			</g>
			<g id="shape67-92" transform="translate(175.748,-39.9076)">
				<title>Sheet.67</title>
				<desc>parameter</desc>
			</g>
			<g id="shape63-93">
				<text x="4" y="465.77" class="st5">HelpView</text>			</g>
		</g>
		<g id="shape68-95" transform="translate(140.14,-260.641)">
			<title>Separator.68</title>
			<path d="M0 484.96 L178.58 484.96 L0 484.96 Z" class="st6"/>
			<path d="M0 484.96 L178.58 484.96" class="st7"/>
		</g>
		<g id="group69-98" transform="translate(597.51,-257.806)">
			<title>Class.69</title>
			<desc>TaskCard</desc>
			<g id="shape70-99">
				<title>Sheet.70</title>
				<path d="M0 486.37 L184.25 486.37 L184.25 477.87 L0 477.87 L0 486.37 Z" class="st2"/>
			</g>
			<g id="shape71-101" transform="translate(0,-8.50394)">
				<title>Sheet.71</title>
				<path d="M0 486.37 L184.25 486.37 L184.25 454.97 L0 454.97 L0 486.37 Z" class="st3"/>
			</g>
			<g id="shape73-103" transform="translate(175.748,-39.9076)">
				<title>Sheet.73</title>
				<desc>parameter</desc>
			</g>
			<g id="shape69-104">
				<text x="4" y="465.77" class="st5">TaskCard</text>			</g>
		</g>
		<g id="shape74-106" transform="translate(600.344,-260.641)">
			<title>Separator.74</title>
			<path d="M0 484.96 L178.58 484.96 L0 484.96 Z" class="st6"/>
			<path d="M0 484.96 L178.58 484.96" class="st7"/>
		</g>
		<g id="group75-109" transform="translate(484.124,-201.169)">
			<title>Class.75</title>
			<desc>TodoListView</desc>
			<g id="shape76-110">
				<title>Sheet.76</title>
				<path d="M0 486.37 L184.25 486.37 L184.25 477.87 L0 477.87 L0 486.37 Z" class="st2"/>
			</g>
			<g id="shape77-112" transform="translate(0,-8.50394)">
				<title>Sheet.77</title>
				<path d="M0 486.37 L184.25 486.37 L184.25 454.97 L0 454.97 L0 486.37 Z" class="st3"/>
			</g>
			<g id="shape79-114" transform="translate(175.748,-39.9076)">
				<title>Sheet.79</title>
				<desc>parameter</desc>
			</g>
			<g id="shape75-115">
				<text x="4" y="465.77" class="st5">TodoListView</text>			</g>
		</g>
		<g id="shape80-117" transform="translate(486.959,-204.004)">
			<title>Separator.80</title>
			<path d="M0 484.96 L178.58 484.96 L0 484.96 Z" class="st6"/>
			<path d="M0 484.96 L178.58 484.96" class="st7"/>
		</g>
		<g id="group94-120" transform="translate(524.234,-428.217)">
			<title>Dependency</title>
			<g id="shape94-121">
				<path d="M7.09 486.37 L7.09 514.61" class="st10"/>
			</g>
		</g>
		<g id="group101-127" transform="translate(365.494,-78.6115)">
			<title>Class.101</title>
			<desc>CommandController</desc>
			<g id="shape102-128">
				<title>Sheet.102</title>
				<path d="M0 486.37 L184.25 486.37 L184.25 477.87 L0 477.87 L0 486.37 Z" class="st2"/>
			</g>
			<g id="shape103-130" transform="translate(0,-8.50394)">
				<title>Sheet.103</title>
				<path d="M0 486.37 L184.25 486.37 L184.25 454.97 L0 454.97 L0 486.37 Z" class="st3"/>
			</g>
			<g id="shape105-132" transform="translate(175.748,-39.9076)">
				<title>Sheet.105</title>
				<desc>parameter</desc>
			</g>
			<g id="shape101-133">
				<text x="4" y="465.77" class="st5">CommandController</text>			</g>
		</g>
		<g id="shape106-135" transform="translate(368.329,-81.4461)">
			<title>Separator.106</title>
			<path d="M0 484.96 L178.58 484.96 L0 484.96 Z" class="st6"/>
			<path d="M0 484.96 L178.58 484.96" class="st7"/>
		</g>
		<g id="shape107-138" transform="translate(193.573,-18.25)">
			<title>Package (collapsed)</title>
			<desc>Logic</desc>
			<rect x="0" y="452.359" width="113.386" height="34.0157" class="st11"/>
			<text x="38.69" y="472.97" class="st5">Logic</text>		</g>
		<g id="group113-141" transform="translate(457.62,-78.6115)">
			<title>Directed Association.113</title>
			<g id="shape113-142">
				<path d="M0 486.37 L0 529.73 L-150.66 529.73" class="st12"/>
			</g>
		</g>
		<g id="group146-147" transform="translate(523.986,-334.777)">
			<title>Inheritance.146</title>
			<g id="shape146-148">
				<path d="M6.84 485.99 L7.33 485.99 L7.33 483.14" class="st13"/>
			</g>
		</g>
		<g id="shape151-153" transform="translate(632.943,-131.747)">
			<title>Package (collapsed).151</title>
			<desc>Model</desc>
			<rect x="0" y="452.359" width="113.386" height="34.0157" class="st11"/>
			<text x="38.69" y="472.97" class="st5">Model</text>		</g>
		<g id="group187-156" transform="translate(250.691,-201.169)">
			<title>Class.187</title>
			<desc>FilterBarView</desc>
			<g id="shape188-157">
				<title>Sheet.188</title>
				<path d="M0 486.37 L184.25 486.37 L184.25 477.87 L0 477.87 L0 486.37 Z" class="st2"/>
			</g>
			<g id="shape189-159" transform="translate(0,-8.50394)">
				<title>Sheet.189</title>
				<path d="M0 486.37 L184.25 486.37 L184.25 454.97 L0 454.97 L0 486.37 Z" class="st3"/>
			</g>
			<g id="shape191-161" transform="translate(175.748,-39.9076)">
				<title>Sheet.191</title>
				<desc>parameter</desc>
			</g>
			<g id="shape187-162">
				<text x="4" y="465.77" class="st5">FilterBarView</text>			</g>
		</g>
		<g id="shape192-164" transform="translate(253.526,-204.004)">
			<title>Separator.192</title>
			<path d="M0 484.96 L178.58 484.96 L0 484.96 Z" class="st6"/>
			<path d="M0 484.96 L178.58 484.96" class="st7"/>
		</g>
		<g id="group193-167" transform="translate(110.376,-125.855)">
			<title>Directed Association</title>
			<g id="shape193-168">
				<path d="M0 486.37 L0 576.97 L83.2 576.97" class="st12"/>
			</g>
		</g>
		<g id="group208-173" transform="translate(682.549,-257.806)">
			<title>Directed Association.208</title>
			<g id="shape208-174">
				<path d="M7.09 486.37 L7.09 527.51 L7.09 578.42" class="st12"/>
			</g>
		</g>
		<g id="group213-179" transform="translate(576.25,-201.169)">
			<title>Directed Association.213</title>
			<g id="shape213-180">
				<path d="M0 486.37 L0 538.79 L56.69 538.79" class="st12"/>
			</g>
		</g>
		<g id="group219-185" transform="translate(229.431,-257.806)">
			<title>Directed Association.219</title>
			<g id="shape219-186">
				<path d="M0 486.37 L0 598.37 L-26.93 598.37" class="st12"/>
			</g>
		</g>
		<g id="group224-191" transform="translate(342.817,-201.169)">
			<title>Directed Association.224</title>
			<g id="shape224-192">
				<path d="M0 486.37 L0 541.73 L-140.31 541.73" class="st12"/>
			</g>
		</g>
		<g id="group229-197" transform="translate(412.266,-257.806)">
			<title>Directed Association.229</title>
			<g id="shape229-198">
				<path d="M0 486.37 L0 598.37 L-209.76 598.37" class="st12"/>
			</g>
		</g>
		<g id="group234-203" transform="translate(450.533,-118.519)">
			<title>Directed Association.234</title>
			<g id="shape234-204">
				<path d="M7.09 486.37 L7.09 347.09" class="st12"/>
			</g>
		</g>
		<g id="group239-209" transform="translate(542.234,-201.169)">
			<title>Directed Association.239</title>
			<g id="shape239-210">
				<path d="M0 486.37 L0 541.73 L-82.25 541.73 A2.3622 2.3622 -180 0 0 -86.98 541.73 L-339.73 541.73" class="st12"/>
			</g>
		</g>
		<g id="group249-215" transform="translate(172.313,-374.276)">
			<title>Directed Association.249</title>
			<g id="shape249-216">
				<path d="M0 486.37 L-117.21 486.37 L-117.21 694.89" class="st12"/>
			</g>
		</g>
	</g>
</svg>
